<svg xmlns="http://www.w3.org/2000/svg" width="144.4978mm" height="173.3976mm" viewBox="0 0 409.6 491.5207"><title>tool-case-studies</title><path d="M331.7355,175.32H315.3511a8.1917,8.1917,0,0,0,0,16.3834h16.3844a8.1917,8.1917,0,0,0,0-16.3834Z" transform="translate(-61.4 -11.4793)"/><polygon points="229.375 25.892 297.48 25.892 303.335 38.904 303.335 485.218 222.01 485.218 219.407 32.769 229.375 25.892" fill="#e98f3a"/><path d="M331.7355,208.0876H315.3511a8.1917,8.1917,0,0,0,0,16.3834h16.3844a8.1917,8.1917,0,0,0,0-16.3834Z" transform="translate(-61.4 -11.4793)"/><path d="M331.7355,142.5511H315.3511a8.1917,8.1917,0,0,0,0,16.3834h16.3844a8.1917,8.1917,0,0,0,0-16.3834Z" transform="translate(-61.4 -11.4793)"/><path d="M331.7355,404.6958H315.3511a8.1917,8.1917,0,0,0,0,16.3834h16.3844a8.1917,8.1917,0,0,0,0-16.3834Z" transform="translate(-61.4 -11.4793)"/><path d="M151.5115,142.5511H102.3594a8.195,8.195,0,0,0-8.1917,8.1917V265.4313a8.195,8.195,0,0,0,8.1917,8.1917h49.1521a8.195,8.195,0,0,0,8.1917-8.1917V150.7438A8.1952,8.1952,0,0,0,151.5115,142.5511ZM143.32,257.24H110.5521V158.9355H143.32Z" transform="translate(-61.4 -11.4793)"/><path d="M151.5115,404.6958H102.3594a8.1917,8.1917,0,0,0,0,16.3834h49.1521a8.1917,8.1917,0,0,0,0-16.3834Z" transform="translate(-61.4 -11.4793)"/><path d="M151.5115,437.4636H102.3594a8.1917,8.1917,0,1,0,0,16.3833h49.1521a8.1917,8.1917,0,1,0,0-16.3833Z" transform="translate(-61.4 -11.4793)"/><path d="M331.7355,437.4636H315.3511a8.1917,8.1917,0,0,0,0,16.3833h16.3844a8.1917,8.1917,0,0,0,0-16.3833Z" transform="translate(-61.4 -11.4793)"/><path d="M430.04,437.4636H397.2719a8.1917,8.1917,0,1,0,0,16.3833H430.04a8.1917,8.1917,0,1,0,0-16.3833Z" transform="translate(-61.4 -11.4793)"/><path d="M258.0073,150.7438a8.1949,8.1949,0,0,0-8.1916-8.1917H217.0479a8.195,8.195,0,0,0-8.1917,8.1917V265.4323a8.195,8.195,0,0,0,8.1917,8.1917h32.7678a8.1949,8.1949,0,0,0,8.1916-8.1917ZM241.6239,257.24H225.24V158.9355h16.3843Z" transform="translate(-61.4 -11.4793)"/><path d="M430.04,404.6958H397.2719a8.1917,8.1917,0,1,0,0,16.3834H430.04a8.1917,8.1917,0,0,0,0-16.3834Z" transform="translate(-61.4 -11.4793)"/><path d="M249.8157,437.4636H217.0479a8.1917,8.1917,0,1,0,0,16.3833h32.7678a8.1917,8.1917,0,0,0,0-16.3833Z" transform="translate(-61.4 -11.4793)"/><path d="M397.2719,306.3917a8.195,8.195,0,0,0,8.1917-8.1917V216.28a8.1917,8.1917,0,1,0-16.3834,0V298.2A8.195,8.195,0,0,0,397.2719,306.3917Z" transform="translate(-61.4 -11.4793)"/><path d="M438.2323,216.2792a8.1917,8.1917,0,0,0-16.3834,0v81.92a8.1917,8.1917,0,0,0,16.3834,0Z" transform="translate(-61.4 -11.4793)"/><path d="M446.424,77.0157H397.2719a8.1917,8.1917,0,0,0,0,16.3834H446.424a8.2047,8.2047,0,0,1,8.1916,8.1916V478.4239a8.2047,8.2047,0,0,1-8.1916,8.1917H372.6958V142.5511h49.1521a8.1917,8.1917,0,1,0,0-16.3834H372.6958V52.44a24.3171,24.3171,0,0,0-24.576-24.576H298.9677A24.6062,24.6062,0,0,0,274.3916,52.44v434.177h-81.92V60.6314h57.3439a8.1918,8.1918,0,0,0,0-16.3835H192.4719V36.0553a24.3171,24.3171,0,0,0-24.576-24.576h-81.92A24.6062,24.6062,0,0,0,61.4,36.0553L61.4032,503H446.424A24.6062,24.6062,0,0,0,471,478.4239V101.5917A24.6062,24.6062,0,0,0,446.424,77.0157Zm-270.3374,409.6H77.7834v-409.6h73.7281a8.1922,8.1922,0,0,0,0-16.3843H77.7834V36.0553a8.1021,8.1021,0,0,1,8.1917-8.1917h81.92a8.0127,8.0127,0,0,1,8.1917,8.1917Zm180.2249,0H290.7751V93.3991h40.96a8.1917,8.1917,0,0,0,0-16.3834h-40.96V52.44a8.102,8.102,0,0,1,8.1917-8.1916H348.12a8.0126,8.0126,0,0,1,8.1917,8.1916Z" transform="translate(-61.4 -11.4793)"/><path d="M249.8157,404.6958H217.0479a8.1917,8.1917,0,1,0,0,16.3834h32.7678a8.1917,8.1917,0,0,0,0-16.3834Z" transform="translate(-61.4 -11.4793)"/></svg>