<svg xmlns="http://www.w3.org/2000/svg" width="176.2898mm" height="180.6222mm" viewBox="0 0 499.719 512"><title>tool-guide-to-s</title><polygon points="151.859 59.89 151.859 135.89 453.859 135.89 490.859 97.89 446.859 54.89 151.859 59.89" fill="#e98f3a" stroke="#000" stroke-miterlimit="10"/><path d="M497.07,78.7,463.182,50.137a9.9989,9.9989,0,0,0-6.444-2.354H302.658V27.023A27.0547,27.0547,0,0,0,275.633,0H236.67a27.0547,27.0547,0,0,0-27.024,27.024v20.76H156.55a10.0011,10.0011,0,0,0-10,10v79.641a10.0011,10.0011,0,0,0,10,10h53.096v30.101H55.264a9.9969,9.9969,0,0,0-6.444,2.354L14.93,208.443a24.7215,24.7215,0,0,0,.001,37.806L48.82,274.812a9.9989,9.9989,0,0,0,6.444,2.354H209.647V492H168.839a10,10,0,1,0,0,20H343.466a10,10,0,0,0,0-20H302.658V350.939a10,10,0,1,0-20,0V492H229.646V277.166H355.451a10.0011,10.0011,0,0,0,10-10V187.525a10.0011,10.0011,0,0,0-10-10H302.658V147.424h154.08a10.0016,10.0016,0,0,0,6.445-2.354l33.887-28.563a24.7216,24.7216,0,0,0,0-37.807ZM229.646,27.024h0A7.0335,7.0335,0,0,1,236.671,20h38.963a7.032,7.032,0,0,1,7.024,7.024v20.76H229.646ZM345.451,197.526v59.64H58.917L27.82,230.956a4.7215,4.7215,0,0,1,0-7.221l31.097-26.209ZM229.646,177.525V147.424h53.012v30.101Zm254.534-76.31-31.095,26.21H220.652c-.331-.033-.666-.051-1.005-.051s-.675.018-1.005.051h-52.09V67.784H453.087l31.096,26.209a4.72,4.72,0,0,1-.003,7.222Z" transform="translate(-6.141 0)"/><circle cx="250.01" cy="96.15" r="10"/><circle cx="250.01" cy="227.34" r="10"/><circle cx="286.52" cy="306.69" r="10"/></svg>