<svg xmlns="http://www.w3.org/2000/svg" width="21.1355mm" height="19.7556mm" viewBox="0 0 59.9116 56"><title>tool-template</title><path d="M59.605,23.399a1.27,1.27,0,0,0-.965-.443H56V8.723a1.77,1.77,0,0,0-1.768-1.768H23.566L21.081,2.814a1.7747,1.7747,0,0,0-1.516-.859H5.767A1.7709,1.7709,0,0,0,4,3.723V22.955H1.27A1.2708,1.2708,0,0,0,.014,24.416L4.931,56.87a1.2777,1.2777,0,0,0,1.257,1.085H53.722a1.2759,1.2759,0,0,0,1.256-1.081L59.896,24.42A1.2669,1.2669,0,0,0,59.605,23.399ZM6,3.956H19.434l2.485,4.141a1.7747,1.7747,0,0,0,1.516.859H54v14H53v-4H52v-3H51v-3H9v3H8v3H7v4H6Zm3,17H51v2H9Zm1-3H50v1H10Zm39-2H11v-1H49Zm4.095,40H6.815l-4.696-31H57.792Z" transform="translate(0.0005 -1.955)"/><polygon points="9 19.001 10 19.001 10 16.001 11 16.001 11 13.001 49 13.001 49 16.001 50 16.001 50 19.001 51 19.001 51 21.001 9 21.001 9 19.001" fill="#e98f3a"/><line x1="10.1556" y1="18.5528" x2="51.243" y2="18.5528" fill="none" stroke="#000" stroke-miterlimit="10"/><line x1="9.5231" y1="15.5064" x2="50.2897" y2="15.5064" fill="none" stroke="#000" stroke-miterlimit="10"/></svg>