<svg xmlns="http://www.w3.org/2000/svg" width="156.2049mm" height="153.4311mm" viewBox="0 0 442.7855 434.9229"><title>pe-procurement-technology</title><polygon points="24.5 361.423 419.5 361.423 435.285 344.423 435.285 300.423 7.5 300.423 12.167 350.923 24.5 361.423" fill="#e98f3a"/><path d="M291.6626,88.55H430.8973a25.8882,25.8882,0,0,1,25.8882,25.8883V359.6708a25.8882,25.8882,0,0,1-25.8882,25.8883H54.8882A25.8883,25.8883,0,0,1,29,359.6708V114.4383A25.8883,25.8883,0,0,1,54.8882,88.55H186.6988" transform="translate(-21.5 -24.1361)" fill="none" stroke="#000" stroke-linecap="round" stroke-miterlimit="10" stroke-width="15" opacity="0.99"/><line x1="221.3927" y1="361.4229" x2="221.3927" y2="427.4229" fill="none" stroke="#000" stroke-miterlimit="10" stroke-width="15"/><line x1="152.5" y1="427.4229" x2="288.5" y2="427.4229" fill="none" stroke="#000" stroke-linecap="round" stroke-miterlimit="10" stroke-width="15"/><line x1="7.5" y1="300.4229" x2="435.2855" y2="300.4229" fill="none" stroke="#000" stroke-linecap="round" stroke-miterlimit="10" stroke-width="15"/><line x1="219.197" y1="264.8977" x2="219.197" y2="189.366" fill="none" stroke="#000" stroke-linecap="round" stroke-miterlimit="10" stroke-width="11"/><line x1="152.6325" y1="227.1319" x2="152.6325" y2="151.6002" fill="none" stroke="#000" stroke-linecap="round" stroke-miterlimit="10" stroke-width="11"/><line x1="284.7268" y1="227.1319" x2="284.7268" y2="151.6002" fill="none" stroke="#000" stroke-linecap="round" stroke-miterlimit="10" stroke-width="11"/><line x1="152.91" y1="151.6002" x2="218.3224" y2="189.366" fill="none" stroke="#000" stroke-linecap="round" stroke-miterlimit="10" stroke-width="11"/><line x1="219.197" y1="112.5314" x2="284.6094" y2="150.2973" fill="none" stroke="#000" stroke-linecap="round" stroke-miterlimit="10" stroke-width="11"/><line x1="153.7846" y1="227.1319" x2="219.197" y2="264.8977" fill="none" stroke="#000" stroke-linecap="round" stroke-miterlimit="10" stroke-width="11"/><line x1="284.6094" y1="151.6002" x2="219.197" y2="189.366" fill="none" stroke="#000" stroke-linecap="round" stroke-miterlimit="10" stroke-width="11"/><line x1="218.3224" y1="112.5314" x2="152.91" y2="150.2973" fill="none" stroke="#000" stroke-linecap="round" stroke-miterlimit="10" stroke-width="11"/><line x1="284.6094" y1="227.3438" x2="219.197" y2="265.1097" fill="none" stroke="#000" stroke-linecap="round" stroke-miterlimit="10" stroke-width="11"/><line x1="218.3224" y1="151.6002" x2="218.3224" y2="15.2181" fill="none" stroke="#000" stroke-linecap="round" stroke-miterlimit="10" stroke-width="10"/><line x1="301.8253" y1="15.2181" x2="218.3224" y2="15.2181" fill="none" stroke="#000" stroke-linecap="round" stroke-miterlimit="10" stroke-width="10"/><circle cx="315.9216" cy="15.3386" r="11.3386" fill="none" stroke="#000" stroke-linecap="round" stroke-miterlimit="10" stroke-width="8"/></svg>