<svg xmlns="http://www.w3.org/2000/svg" width="166.2712mm" height="180.6226mm" viewBox="0 0 471.32 512.001"><title>pe-strategy-org-design</title><path d="M456.289,422.381V399.969a37.416,37.416,0,0,0-37.373-37.373H266v-9.278a10,10,0,0,0-20,0v9.278H93.084a37.4154,37.4154,0,0,0-37.373,37.373v22.412a45.37,45.37,0,1,0,20-.0011v-22.412A17.3932,17.3932,0,0,1,93.084,382.595H246v39.784a45.3742,45.3742,0,1,0,20,.001V382.596H418.916a17.3927,17.3927,0,0,1,17.373,17.373v22.412a45.371,45.371,0,1,0,20,0ZM91.083,466.628a25.3715,25.3715,0,1,1-25.372-25.372A25.401,25.401,0,0,1,91.083,466.628Zm190.289,0A25.372,25.372,0,1,1,256,441.256,25.401,25.401,0,0,1,281.372,466.628ZM446.289,492a25.372,25.372,0,1,1,25.371-25.372A25.401,25.401,0,0,1,446.289,492Z" transform="translate(-20.34 0)"/><polygon points="232.831 113.89 193.66 132.89 199.272 181.89 213.246 194.89 155.648 233.89 149.66 278.89 203.66 300.89 245.66 300.89 297.66 293.844 315.672 281.89 329.66 265.89 315.672 234.89 284.66 214.89 266.391 207.39 261.032 190.481 273.66 165.89 270.66 137.089 245.66 113.89 232.831 113.89" fill="#ef7d25" stroke="#000" stroke-miterlimit="10"/><path d="M256,0C169.474,0,99.078,70.395,99.078,156.922a156.6886,156.6886,0,0,0,58.48,122.105,10.2238,10.2238,0,0,0,.802.737,158.4431,158.4431,0,0,0,24.777,16.211c.001-.036.001-.072.002-.108a156.6306,156.6306,0,0,0,160.307-8.708c.014.016.029.032.044.048q5.1885-3.5025,10.151-7.443a9.85,9.85,0,0,0,.802-.737,156.6908,156.6908,0,0,0,58.479-122.105C412.922,70.395,342.528,0,256,0Zm0,293.844a136.1763,136.1763,0,0,1-80.012-25.881c10.471-33.66,43.123-57.482,80.012-57.482s69.541,23.822,80.012,57.482A136.1763,136.1763,0,0,1,256,293.844ZM219.612,156.922a33.56,33.56,0,1,1,33.56,33.559A33.5981,33.5981,0,0,1,219.612,156.922Zm132.669,97.255a101.4668,101.4668,0,0,0-30.96-41.124,104.2145,104.2145,0,0,0-31.584-17.046,53.5595,53.5595,0,1,0-71.515,1.448,103.9415,103.9415,0,0,0-27.541,15.598,101.4579,101.4579,0,0,0-30.96,41.124,136.5,136.5,0,0,1-40.642-97.255C119.078,81.423,180.502,20,256,20S392.922,81.423,392.922,156.922A136.5078,136.5078,0,0,1,352.281,254.177Z" transform="translate(-20.34 0)"/><circle cx="235.66" cy="328.57" r="10"/></svg>