<svg xmlns="http://www.w3.org/2000/svg" width="180.6222mm" height="162.7551mm" viewBox="0 0 512 461.353"><title>company-careers</title><path d="M317.5,25.324H195.706a34.1561,34.1561,0,0,0-34.118,34.117V75.118a10,10,0,0,0,20,0V59.441a14.1334,14.1334,0,0,1,14.118-14.117H317.5a14.1334,14.1334,0,0,1,14.118,14.117V75.118a10,10,0,0,0,20,0V59.441A34.1554,34.1554,0,0,0,317.5,25.324Z" transform="translate(0 -25.324)"/><polygon points="11 221.566 215 279.566 215 250.566 290 250.566 297 279.566 503 215.566 503 124.566 492 104.566 475 87.566 41 92.566 20 100.794 11 125.566 11 221.566" fill="#ef7d25" stroke="#000" stroke-miterlimit="10"/><path d="M463.178,106.118H48.822A48.8767,48.8767,0,0,0,0,154.94v88.801a10.0018,10.0018,0,0,0,7.171,9.592l6.093,1.797V464.618a22.0845,22.0845,0,0,0,22.059,22.059H476.676a22.0838,22.0838,0,0,0,22.059-22.059V256.603l6.039-1.744A10.0009,10.0009,0,0,0,512,245.252V154.94A48.8767,48.8767,0,0,0,463.178,106.118ZM89.235,466.676H35.323a2.06,2.06,0,0,1-2.058-2.058V410.706h28.76a27.241,27.241,0,0,1,27.21,27.21Zm389.499-2.058a2.0588,2.0588,0,0,1-2.058,2.058H422.764v-28.76a27.241,27.241,0,0,1,27.21-27.21h28.76Zm.002-73.912H449.975a47.2637,47.2637,0,0,0-47.21,47.21v28.76H109.235v-28.76a47.2637,47.2637,0,0,0-47.21-47.21H33.265V261.029L209.824,313.1v32.135a10,10,0,0,0,10,10h72.353a10,10,0,0,0,10-10V313.367l176.559-50.988V390.706ZM229.823,335.235V286.5h52.353v48.735ZM492,237.731,302.176,292.55V276.5a10,10,0,0,0-10-10H219.823a10,10,0,0,0-10,10v15.75L20,236.265V154.94a28.8546,28.8546,0,0,1,28.822-28.822H89.235v34.618a10,10,0,0,0,20,0V126.118H399.147v34.618a10,10,0,1,0,20,0V126.118h44.031A28.8546,28.8546,0,0,1,492,154.94v82.791Z" transform="translate(0 -25.324)"/><circle cx="409.15" cy="173.996" r="10"/><circle cx="99.23" cy="173.996" r="10"/></svg>