<svg xmlns="http://www.w3.org/2000/svg" width="130.422mm" height="130.422mm" viewBox="0 0 369.7002 369.7002"><title>company-pl</title><rect width="369.7002" height="369.7002" rx="42.6381" fill="#231f20"/><path d="M126.7793,257.7246v88.7813H94.5562V107.5669H165.498q16.1735,0,28.7208,5.6616a59.7341,59.7341,0,0,1,21.2065,15.836,70.1333,70.1333,0,0,1,13.1821,24.124,98.0043,98.0043,0,0,1,4.5215,30.3594,99.8525,99.8525,0,0,1-4.5215,31.1806,63.5,63.5,0,0,1-13.1821,23.3028,57.3536,57.3536,0,0,1-21.2065,14.6054q-12.5464,5.0889-28.7208,5.0879Zm0-33.314H165.498a39.3714,39.3714,0,0,0,15.9844-2.9541A28.691,28.691,0,0,0,192.5,213.0874a34.4531,34.4531,0,0,0,6.3047-12.8823,63.7994,63.7994,0,0,0,1.9741-16.3286,64.655,64.655,0,0,0-1.9741-16.0826A40.1789,40.1789,0,0,0,192.5,154.0908a31.6017,31.6017,0,0,0-11.0171-9.518,33.8394,33.8394,0,0,0-15.9844-3.5284H126.7793Z" transform="translate(-39.3415 -49.6748)" fill="#fff"/><path d="M274.458,313.3564h84.1885v33.1495H242.2349V107.5669H274.458Z" transform="translate(-39.3415 -49.6748)" fill="#fff"/></svg>