<svg xmlns="http://www.w3.org/2000/svg" width="180.6222mm" height="167.1505mm" viewBox="0 0 512 473.8125"><title>company-news</title><path d="M486.1563,19H111.5586a25.87,25.87,0,0,0-25.84,25.8437V84.0742H25.8438A25.8735,25.8735,0,0,0,0,109.918V442.457a50.4137,50.4137,0,0,0,49.9961,50.3438h.1016c.09.0039.1718.0117.2617.0117H315.668a7.5,7.5,0,0,0,0-15H86.1836a50.1948,50.1948,0,0,0,14.5352-35.3555V267.07a7.5,7.5,0,0,0-15,0V442.457a35.3969,35.3969,0,0,1-35.168,35.3516c-.0625,0-.125-.0078-.1914-.0078A35.3976,35.3976,0,0,1,15,442.457V109.918A10.857,10.857,0,0,1,25.8438,99.0742h59.875V239.07a7.5,7.5,0,0,0,15,0V44.8437A10.8536,10.8536,0,0,1,111.5586,34H486.1563A10.8545,10.8545,0,0,1,497,44.8437V442.457a35.3976,35.3976,0,0,1-35.3594,35.3555H343.668a7.5,7.5,0,0,0,0,15H461.6406A50.414,50.414,0,0,0,512,442.457V44.8437A25.8733,25.8733,0,0,0,486.1563,19Z" transform="translate(0 -19)"/><polygon points="161.574 68.406 153.289 75.906 153.289 184.262 164.349 191.762 269.93 191.762 280.157 179.721 276.253 73.022 266.494 68.406 161.574 68.406" fill="#ef7d25"/><path d="M164.32,218.2617H267.1836A17.7662,17.7662,0,0,0,284.93,200.5156V97.6523a17.7663,17.7663,0,0,0-17.7461-17.7461H164.32a17.7664,17.7664,0,0,0-17.7461,17.7461V200.5156A17.7663,17.7663,0,0,0,164.32,218.2617ZM161.5742,97.6523a2.7474,2.7474,0,0,1,2.7461-2.7461H267.1836a2.75,2.75,0,0,1,2.7461,2.7461V200.5156a2.7524,2.7524,0,0,1-2.7461,2.7461H164.32a2.75,2.75,0,0,1-2.7461-2.7461Z" transform="translate(0 -19)"/><path d="M312.1914,94.9062H451.3906a7.5,7.5,0,0,0,0-15H312.1914a7.5,7.5,0,0,0,0,15Z" transform="translate(0 -19)"/><path d="M312.1914,156.5859H451.3906a7.5,7.5,0,0,0,0-15H312.1914a7.5,7.5,0,0,0,0,15Z" transform="translate(0 -19)"/><path d="M312.1914,218.2617H451.3906a7.5,7.5,0,0,0,0-15H312.1914a7.5,7.5,0,0,0,0,15Z" transform="translate(0 -19)"/><path d="M154.0742,279.9375H451.3906a7.5,7.5,0,0,0,0-15H154.0742a7.5,7.5,0,0,0,0,15Z" transform="translate(0 -19)"/><path d="M154.0742,341.6172H451.3906a7.5,7.5,0,1,0,0-15H154.0742a7.5,7.5,0,0,0,0,15Z" transform="translate(0 -19)"/><path d="M154.0742,405.6172H451.3906a7.5,7.5,0,1,0,0-15H154.0742a7.5,7.5,0,0,0,0,15Z" transform="translate(0 -19)"/></svg>