<svg xmlns="http://www.w3.org/2000/svg" width="175.1898mm" height="180.6222mm" viewBox="0 0 496.601 512"><title>company-team</title><circle cx="433.939" cy="338.1" r="10"/><circle cx="53.265" cy="338.1" r="10"/><polygon points="248.3 107.89 210.3 107.89 178.3 132.89 154.3 162.89 138.3 241.89 138.3 323.89 161.3 348.1 184.3 348.1 193.3 500.89 301.3 500.89 301.3 352.89 345.3 328.1 350.3 213.89 337.946 154.89 278.948 107.89 248.3 107.89" fill="#ef7d25" stroke="#000" stroke-miterlimit="10"/><path d="M494.298,491.996H408.422l-.525-245.772a10.0009,10.0009,0,0,0-10.001-9.98h-.022a10.0011,10.0011,0,0,0-9.98,10.023l.525,245.729H359.37l-.257-109.348a10.0011,10.0011,0,0,0-10.001-9.978h-.024a10,10,0,0,0-9.978,10.025l.257,109.301H315.082V359.636c28.31-2.503,50.569-25.767,50.569-54.016V208.696a108.5627,108.5627,0,0,0-9.525-44.471,82.793,82.793,0,0,1,52.28,23.013,77.5241,77.5241,0,0,1,24.071,55.971l.183,56.916a10.002,10.002,0,0,0,10.001,9.97h.033a10.0033,10.0033,0,0,0,9.97-10.034l-.183-56.905a97.3652,97.3652,0,0,0-30.18-70.307,102.226,102.226,0,0,0-38.597-23.439,52.8818,52.8818,0,0,0-36.446-91.234h-.114a53.0893,53.0893,0,0,0-24.401,6.01,10.0021,10.0021,0,1,0,9.277,17.723,32.5437,32.5437,0,0,1,15.168-3.73,32.9166,32.9166,0,1,1,.1409,65.833,9.9659,9.9659,0,0,0-1.2669.092c-.533.022-1.0651.041-1.599.071a113.8184,113.8184,0,0,0-57.84-41.402,58.6708,58.6708,0,1,0-75.472,1.533,113.7149,113.7149,0,0,0-53.292,39.812c-1.584-.071-3.166-.113-4.74-.113-.748,0-1.494.012-2.239.028-.183-.01-.363-.028-.548-.028a32.916,32.916,0,1,1,15.693-61.859,10.0022,10.0022,0,0,0,9.555-17.575,52.9005,52.9005,0,0,0-59.995,86.382c-37.813,14.581-64.622,50.512-64.622,92.42v56.72a10.002,10.002,0,1,0,20.004,0v-56.72c0-41.48,33.116-75.606,75.144-79.055a108.5641,108.5641,0,0,0-9.484,44.378V305.62c0,28.808,23.147,52.433,52.255,54.141V491.995H161.634V382.668a10.002,10.002,0,1,0-20.004,0V491.996H117.044V246.346a10.002,10.002,0,0,0-20.004,0v245.65H17.702a10.002,10.002,0,0,0,0,20.004H494.299a10.002,10.002,0,1,0-.001-20.004ZM209.307,58.675a38.6705,38.6705,0,1,1,38.671,38.671A38.7151,38.7151,0,0,1,209.307,58.675Zm95.772,143.391a10.0019,10.0019,0,0,0-10.002,10.002V491.996H259.455V352.849a10.002,10.002,0,1,0-20.004,0V491.997H208.886V212.068a10.002,10.002,0,1,0-20.004,0V339.709c-18.067-1.64-32.252-16.299-32.252-34.088V208.697a88.8291,88.8291,0,0,1,14.558-48.724c17.452-26.689,47.34-42.623,79.95-42.623,32.664,0,62.579,15.975,80.021,42.7339a88.837,88.837,0,0,1,14.487,48.6131v96.924c0,17.232-13.31,31.525-30.565,33.895V212.068A10.0013,10.0013,0,0,0,305.079,202.066Z" transform="translate(-7.7 0)"/></svg>