<svg xmlns="http://www.w3.org/2000/svg" width="180.5937mm" height="150.5119mm" viewBox="0 0 511.9191 426.648"><title>company-contact</title><polygon points="312.882 216.979 242.932 298.152 251.024 310.35 430.301 371.651 442.157 359.218 499.988 13.675 312.882 216.979" fill="#e98f3a"/><path d="M505.77,46.551a16.8887,16.8887,0,0,0-17.109-2.697L56.482,218.293a8.5374,8.5374,0,1,0,6.4,15.83L475.742,67.535,270.942,309.08a8.534,8.534,0,1,0,13.0219,11.034L491.861,74.899,464.076,214.368,436.087,401.393a8.5362,8.5362,0,0,1-4.267,6.204,8.0656,8.0656,0,0,1-7.194.333L308.257,362.174l-55.842-23.381a8.5334,8.5334,0,0,0-11.17,4.565,8.19,8.19,0,0,0-.358,1.801h-.205L212.957,452.218,173.175,313.253,380.535,158.8a8.5332,8.5332,0,1,0-10.189-13.653L161.92,300.324,11.682,239.507a8.5334,8.5334,0,0,0-6.4,15.821l151.04,61.116,40.277,140.612a16.9213,16.9213,0,0,0,16.316,12.228h.196a16.7676,16.7676,0,0,0,11.093-4.463,7.5358,7.5358,0,0,0,.853-.597l82.483-84.343,110.592,43.853a24.8654,24.8654,0,0,0,21.939-1.229,25.5243,25.5243,0,0,0,12.86-18.526l27.913-186.675,30.72-154.121A17.16,17.16,0,0,0,505.77,46.551ZM236.877,427.786l18.014-69.436,28.211,11.844,7.27,2.884Z" transform="translate(0 -42.6361)"/></svg>