<svg xmlns="http://www.w3.org/2000/svg" width="174.3912mm" height="180.6221mm" viewBox="0 0 494.3373 511.9997"><title>ci-financial-services</title><circle cx="78.599" cy="406.6897" r="10"/><circle cx="461.569" cy="287.4397" r="10"/><path d="M354.647,212.344H339.292a8.8112,8.8112,0,0,1-8.802-8.802v-8.931a8.8125,8.8125,0,0,1,8.802-8.802h17.012a7.1526,7.1526,0,0,1,7.145,7.144,10,10,0,1,0,20,0,27.1709,27.1709,0,0,0-26.479-27.127v-8.584a10,10,0,1,0-20,0v8.669a28.8354,28.8354,0,0,0-26.479,28.7v8.931a28.8352,28.8352,0,0,0,28.802,28.802h15.355a8.811,8.811,0,0,1,8.802,8.801v8.932a8.811,8.811,0,0,1-8.802,8.801H337.636a7.1526,7.1526,0,0,1-7.145-7.144,10,10,0,0,0-20,0,27.171,27.171,0,0,0,26.479,27.127v8.584a10,10,0,0,0,20,0v-8.669a28.8344,28.8344,0,0,0,26.479-28.699v-8.932A28.8344,28.8344,0,0,0,354.647,212.344Z" transform="translate(-8.831 -0.0003)"/><polygon points="12.169 333.179 83.302 304.118 142.289 432.07 16.506 496.697 12.169 333.179" fill="#ef7d25"/><path d="M499.899,339.009a38.1378,38.1378,0,0,0-50.295-19.484c-.05.021-.1.044-.148.066l-62.989,29.048a10,10,0,1,0,8.375,18.163l62.908-29.011a18.1392,18.1392,0,0,1,14.586,33.217l-128.9,56.9141a74.3655,74.3655,0,0,1-63.301-1.435L232.95,403.046a94.3,94.3,0,0,0-80.277-1.819l-.6.2641-34.973-79.21,48.628-21.47a97.0588,97.0588,0,0,1,73.012-2.332l94.885,34.845a16.742,16.742,0,0,1-11.136,31.575l-73.375-24.818a10,10,0,1,0-6.408,18.946l73.375,24.818a36.7465,36.7465,0,0,0,46.537-22.912,36.9538,36.9538,0,0,0-22.099-46.382l-94.885-34.845a118.5055,118.5055,0,0,0-19.454-5.321v-55.277a98.96,98.96,0,0,1,98.847-98.847h36.524a98.96,98.96,0,0,1,98.848,98.847v26.061a10,10,0,0,0,20,0v-26.061a119.0419,119.0419,0,0,0-96.008-116.636V72.349l25.267-43.222a10,10,0,0,0-4.497-14.151L374.171.896a10.0011,10.0011,0,0,0-7.523-.305L343.653,8.867,323.257.714A10.0157,10.0157,0,0,0,315.945.67L283.517,13.181a10,10,0,0,0-5.146,14.18l24.881,44.867v30.038a119.04,119.04,0,0,0-97.072,116.84v53.36a117.2367,117.2367,0,0,0-48.53,10.046l-48.99,21.63a24.7512,24.7512,0,0,0-30.553-8.88l-63.29,27.733a9.9994,9.9994,0,0,0-5.986,9.159V502a10,10,0,0,0,14.509,8.926l122.873-62.071a24.7974,24.7974,0,0,0,13.672-28.952l.865-.382a74.3544,74.3544,0,0,1,63.301,1.435l47.185,23.442a94.3249,94.3249,0,0,0,80.277,1.818l128.9-56.914a38.1387,38.1387,0,0,0,19.486-50.293ZM364.391,100.259H323.252V79.641h41.139v20.618Zm-62.96-72.555,18.049-6.961,20.275,8.105a9.993,9.993,0,0,0,7.099.123l22.744-8.187,17.201,7.815-18.146,31.04H319.141ZM137.868,430.678c-.158.07-.315.145-.47.223L28.831,485.745V445.221l28.113-13.805a10,10,0,1,0-8.815-17.953L28.83,422.939V338.69l57.329-25.122a4.7838,4.7838,0,0,1,6.308,2.444l2.292,5.19.002.006.003.006L140.31,424.368A4.7879,4.7879,0,0,1,137.868,430.678Z" transform="translate(-8.831 -0.0003)"/></svg>