<svg xmlns="http://www.w3.org/2000/svg" width="175mm" height="138.6725mm" viewBox="0 0 496.063 393.0873"><title>ci-hr</title><path d="M191.41,278.4988l32.747-30.7952,13.88-7.1566-8.8915-14.1329-2.1687-27.5056,13.88-24.94,19.735.8675s13.1714,8.6747,14.8267,9.759,12.0648,19.735,12.0648,19.735l-12.0648,23.4216,1.4383,14.3133,25.59,16.9157,16.0482,17.1325-4.988,9.759-25.8072,18.4338-38.3855,8.2409-34.482-9.9759-21.0361-12.5783Z" transform="translate(-6.9685 -70.5893)" fill="#e98f3a"/><path d="M453.555,227.756A40.5321,40.5321,0,0,0,460.5,205.0205v-7.7714a40.75,40.75,0,0,0-69.54-28.8608c-19.0926-56.7827-72.8253-97.799-135.96-97.799s-116.8674,41.0153-135.96,97.799A40.75,40.75,0,0,0,49.5,197.2491v7.7714A40.5321,40.5321,0,0,0,56.445,227.756,62.4477,62.4477,0,0,0,6.9685,288.7573v19.5072a9.69,9.69,0,0,0,9.6887,9.6888H67.0386a9.6888,9.6888,0,1,0,0-19.3775H26.346v-9.8185a43.0153,43.0153,0,0,1,42.9666-42.9667h45.8558a142.584,142.584,0,0,0,19.03,45.3733L23.6506,401.7114A36.3091,36.3091,0,0,0,75,453.06l60.945-60.9459a9.6893,9.6893,0,1,0-13.7028-13.7028l-60.944,60.946a16.9318,16.9318,0,1,1-23.9457-23.9448l108.52-108.52A143.1213,143.1213,0,0,0,255,357.3758c68.1389,0,125.3237-47.7752,139.8316-111.5851h45.8558a43.0153,43.0153,0,0,1,42.9666,42.9666v9.8185H392.58a9.6888,9.6888,0,1,0,0,19.3775H493.3428a9.69,9.69,0,0,0,9.6887-9.6887V288.7573A62.4477,62.4477,0,0,0,453.555,227.756Zm-341.89-22.7346a21.3937,21.3937,0,0,1-42.7874,0V197.25a21.3937,21.3937,0,0,1,42.7874,0ZM255,337.9983A124.0158,124.0158,0,1,1,379.0157,213.9825,124.1567,124.1567,0,0,1,255,337.9983ZM441.1215,205.0214a21.3937,21.3937,0,0,1-42.7874,0V197.25a21.3937,21.3937,0,0,1,42.7874,0Z" transform="translate(-6.9685 -70.5893)"/><path d="M255,109.3442a104.5872,104.5872,0,0,0-71.7567,180.7239,9.6824,9.6824,0,0,0,1.1239,1.0464,104.4413,104.4413,0,0,0,141.2656,0,9.6049,9.6049,0,0,0,1.1239-1.0464A104.5872,104.5872,0,0,0,255,109.3442Zm0,189.8992a84.8418,84.8418,0,0,1-52.8007-18.3641,59.7937,59.7937,0,0,1,105.6014,0A84.8418,84.8418,0,0,1,255,299.2434Zm-20.4171-89.8921v-7.5271a20.4171,20.4171,0,0,1,40.8342,0v7.5271a20.4171,20.4171,0,1,1-40.8342,0Zm87.39,57.337a78.4757,78.4757,0,0,0-37.0729-31.12,39.62,39.62,0,0,0,9.8941-26.2158v-7.5272a39.7945,39.7945,0,0,0-79.589,0v7.5272A39.6154,39.6154,0,0,0,225.1,235.5681a78.486,78.486,0,0,0-37.0729,31.12,85.2608,85.2608,0,1,1,133.9466,0Z" transform="translate(-6.9685 -70.5893)"/><path d="M161.8622,352.4965a9.6838,9.6838,0,1,0,2.8388,6.85A9.762,9.762,0,0,0,161.8622,352.4965Z" transform="translate(-6.9685 -70.5893)"/></svg>