<svg xmlns="http://www.w3.org/2000/svg" width="179.2817mm" height="180.6222mm" viewBox="0 0 508.2 512"><title>ci-it</title><polygon points="254.1 7.9 208.1 75.9 208.1 174.3 171.1 203.9 159.1 277.7 217.7 243.1 238.1 249.9 268.9 248.9 288.9 243.1 328.1 266.9 344.1 275.3 344.1 220.7 332.1 185.9 308.1 165.9 300.2 157.9 292.8 82.9 274.1 32.9 254.1 7.9" fill="#e98f3a"/><path d="M500.1,429.8h-201a10.0294,10.0294,0,0,0-10,10,16.73,16.73,0,0,1-16.7,16.7H239.2a16.73,16.73,0,0,1-16.7-16.7,10.0294,10.0294,0,0,0-10-10H56.5v-257A20.784,20.784,0,0,1,77.3,152H202l.1.9-20.8,19.6-.2.2a95.6056,95.6056,0,0,0-28.1,68v44.7a10.06,10.06,0,0,0,10,10,10.0793,10.0793,0,0,0,6.7-2.6l43.8-39.5a10.2587,10.2587,0,0,0,5.8,4.6,126.8615,126.8615,0,0,0,36.2,5.3h.4a129.6064,129.6064,0,0,0,36.6-5.3,10.0912,10.0912,0,0,0,5.9-4.8l44,39.7a10.0793,10.0793,0,0,0,6.7,2.6,9.7819,9.7819,0,0,0,4.1-.9,9.9787,9.9787,0,0,0,5.9-9.1V240.7a95.4582,95.4582,0,0,0-28.2-68l-19.2-19.2.2-1.5H434.8a20.784,20.784,0,0,1,20.8,20.8V356.1a10,10,0,0,0,20,0V172.8A40.8426,40.8426,0,0,0,434.8,132H314.1A166.3277,166.3277,0,0,0,271.5,7.5l-1.8-1.9A16.8251,16.8251,0,0,0,257.1,0H257a16.721,16.721,0,0,0-12.7,5.8L241,9.6A167.3189,167.3189,0,0,0,200,132H77.3a40.8426,40.8426,0,0,0-40.8,40.8v257H11.9a10.0294,10.0294,0,0,0-10,10v15.6A56.6761,56.6761,0,0,0,58.5,512h395a56.6761,56.6761,0,0,0,56.6-56.6V439.8A10.0294,10.0294,0,0,0,500.1,429.8ZM303.7,216.5l4.8-37.9,8.2,8.2A75.6282,75.6282,0,0,1,339,240.7v22.2l-37-33.4ZM256,22.8l1.1-1.3a145.8813,145.8813,0,0,1,36.3,116.1l-2.3,18.2h0l-9.6,76.3h0l-1,8.1a108.1748,108.1748,0,0,1-24.7,2.8h-.4a109.5722,109.5722,0,0,1-24.2-2.8l-7.9-76-.9-8.6h0l-2.2-21.2A146.8022,146.8022,0,0,1,256,22.8ZM210,229.4l-37,33.4V240.6a75.89,75.89,0,0,1,22.2-53.8l9.5-9ZM453.5,492H58.5a36.6175,36.6175,0,0,1-36.6-36.6v-5.6H204a36.7446,36.7446,0,0,0,35.3,26.7h33.2a36.7446,36.7446,0,0,0,35.3-26.7H490.1v5.6h0A36.6175,36.6175,0,0,1,453.5,492Z" transform="translate(-1.9 0)"/><path d="M424.9,174.3H374.6a10,10,0,0,0,0,20h40.3V388H100.5V194.3h31.7a10,10,0,0,0,0-20H90.5a10.0294,10.0294,0,0,0-10,10V398a10.0294,10.0294,0,0,0,10,10H424.8a10.0294,10.0294,0,0,0,10-10V184.3A9.8807,9.8807,0,0,0,424.9,174.3Z" transform="translate(-1.9 0)"/><circle cx="254.1" cy="105.6" r="10"/><circle cx="463.6" cy="399.8" r="10"/><path d="M230,277.7a10.0294,10.0294,0,0,0-10,10v40.7a10,10,0,0,0,20,0V287.7A9.9654,9.9654,0,0,0,230,277.7Z" transform="translate(-1.9 0)"/><path d="M280.8,275.3a10.0294,10.0294,0,0,0-10,10v60a10,10,0,0,0,20,0v-60A10.0294,10.0294,0,0,0,280.8,275.3Z" transform="translate(-1.9 0)"/></svg>