<svg xmlns="http://www.w3.org/2000/svg" width="147.804mm" height="164.5384mm" viewBox="0 0 418.9719 466.4081"><title>ci-logistic</title><path d="M64.004,264.002a8,8,0,0,0-8,8v32a8,8,0,1,0,16,0v-32A8,8,0,0,0,64.004,264.002Z" transform="translate(-24.004 -0.0002)"/><path d="M96.004,280.002a8,8,0,0,0-8,8v32a8,8,0,0,0,16,0v-32A8,8,0,0,0,96.004,280.002Z" transform="translate(-24.004 -0.0002)"/><polygon points="209.478 58.865 163.92 78.322 129.196 98.845 106.394 116.986 69.382 149.01 70.683 219.926 115.574 243.998 125.984 178.504 274.321 90.239 292.755 74.624 242.008 47.299 209.478 58.865" fill="#ef7d25"/><path d="M439.2315,345.27a94.8173,94.8173,0,0,0-51.6091-59.9061V110.6684a7.9041,7.9041,0,0,0-3.8812-6.8059L209.8367,1.1007a7.9055,7.9055,0,0,0-8.047,0L27.8852,103.8625c-.166.0948-.2845.2371-.4426.3478s-.3083.2371-.4664.3636a7.7951,7.7951,0,0,0-1.747,1.9287c0,.0554-.0948.087-.1264.1423V106.7a7.9036,7.9036,0,0,0-.8933,2.5848,7,7,0,0,1-.0948.6956,6.8917,6.8917,0,0,0-.1107.6877V316.1919a7.9044,7.9044,0,0,0,3.8812,6.806L201.79,425.76a6.4961,6.4961,0,0,0,.64.2688,6.2363,6.2363,0,0,0,.664.2845,7.05,7.05,0,0,0,5.4384,0,6.3534,6.3534,0,0,0,.6719-.2845c.2055-.0949.4269-.15.6324-.2688l47.1992-27.8958A94.8175,94.8175,0,0,0,439.2315,345.27ZM205.8132,17.0841l41.1047,24.2913L185.9723,77.39a7.91,7.91,0,1,0,8.047,13.62l68.4473-40.4169,41.1047,24.2913L145.2075,168.4364l-41.1047-24.2913,66.2181-39.1285a7.91,7.91,0,1,0-8.047-13.62L88.5621,134.96,47.45,110.6685Zm-68.51,165.0512v52.78l-40.836-24.1332v-52.78ZM256.3651,347.09a96.31,96.31,0,0,0-2.6017,34.34L213.718,405.1045V379.43a7.9048,7.9048,0,1,0-15.8095,0v25.6746L39.8135,311.6862V124.5255l40.8438,24.1332v66.6291a7.9044,7.9044,0,0,0,3.8813,6.8139l56.6454,33.4766a7.9073,7.9073,0,0,0,11.9283-6.806V191.4708l44.7962,26.473V347.8109a7.9048,7.9048,0,0,0,15.8095,0V217.9438l143.2656-84.66a7.9063,7.9063,0,1,0-8.047-13.6119L205.8132,204.2528l-45.057-26.6311L319.12,84.0374l52.693,31.1368V279.83A94.477,94.477,0,0,0,256.3651,347.09Zm91.7336,103.483a79.0475,79.0475,0,1,1,79.0475-79.0474A79.0471,79.0471,0,0,1,348.0987,450.5726Z" transform="translate(-24.004 -0.0002)"/><path d="M376.464,352.346a7.9993,7.9993,0,0,0-11.116,0L335.004,382.69l-6.344-6.344a8,8,0,0,0-11.312,11.312l12,12a8,8,0,0,0,11.312,0l36-36A8,8,0,0,0,376.464,352.346Z" transform="translate(-24.004 -0.0002)"/></svg>