<svg xmlns="http://www.w3.org/2000/svg" width="175.4576mm" height="138.8557mm" viewBox="0 0 497.3602 393.6066"><title>ci-mro</title><polygon points="205.775 36.72 163.383 33.829 152.042 56.747 128.636 63.401 138.247 98.892 128.636 107.019 94.629 97.672 82.123 126.98 82.123 160.987 283.983 160.987 276.494 109.976 268.477 94.451 243.965 102.583 225.483 107.019 230.658 85.511 233.697 65.619 205.775 48.615 205.775 36.72" fill="#e98f3a"/><polygon points="361.615 7.805 325.723 5.357 316.122 24.761 296.305 30.394 304.442 60.443 296.305 67.324 267.512 59.41 261.766 84.048 278.463 111.76 427.831 113.016 421.49 69.828 414.703 56.683 393.949 63.568 378.301 67.324 382.683 49.114 385.256 32.272 361.615 17.876 361.615 7.805" fill="#e98f3a"/><path d="M351.3027,370.8074c-36.4174-19.3119-64.3511-30.1408-89.2185-34.2925l2.5735-3.5382a4.7459,4.7459,0,0,0,1.2206-4.8815L260.16,305.2226c15.1238-21.38,24.0233-48.1093,24.0233-73.5349V207.2805h18.305a6.1015,6.1015,0,1,0,0-12.2029h-6.1014v-6.1014c0-48.2038-31.7292-89.0855-79.323-102.51V85.2453A18.3567,18.3567,0,0,0,198.7589,66.94H174.3517a18.3567,18.3567,0,0,0-18.3051,18.3051v1.2205c-47.5938,13.4242-79.323,54.3059-79.323,102.51v6.1014H70.6222a6.1015,6.1015,0,0,0,0,12.2029h18.305V231.687c0,25.4256,8.9,52.1547,24.0234,73.5356l-5.7183,22.8726c0,1.2205,0,3.661,1.2205,4.8815l2.5735,3.5382c-24.8666,4.1524-52.8011,14.9806-89.2185,34.2925C10.2149,376.3,3.5028,387.8925,3.5028,400.7061v26.2377a5.7643,5.7643,0,0,0,6.1014,6.1014H363.5063a5.7643,5.7643,0,0,0,6.1014-6.1014V400.7061C369.6085,388.5025,362.2857,376.91,351.3027,370.8074ZM182.8965,365.16l3.6937-8.3107,9.12,20.0643,5.9647,13.42H171.912Zm-15.6226,37.377h38.5169l3.4866,18.305H163.6129Zm83.35-85.4245,2.44,10.9831-6.233,8.5585a5.44,5.44,0,0,0-1.089,1.2039l-25.38,35.1416-8.0534,11.0579-16.45-37.0121c19.663-2.3983,37.2156-12.269,51.3922-26.4543.157-.1556.3148-.31.4711-.4667l.1134-.1156Q249.2457,318.5941,250.6236,317.1121ZM242.6742,111.568q1.0164.676,2.0137,1.3754a106.09,106.09,0,0,1,20.58,19.8957L237.2,138.3306ZM135.9111,138.3306l-28.0682-5.4915a106.08,106.08,0,0,1,20.5812-19.8964q.9955-.699,2.013-1.3747ZM88.9272,188.9755a92.5454,92.5454,0,0,1,11.4861-44.9411l42.21,8.331h1.2206c1.8305,0,3.0511-.61,4.8816-1.2206a4.9213,4.9213,0,0,0,1.8305-5.4915L142.179,104.885a101.22,101.22,0,0,1,13.8684-5.445v16.3146a6.1015,6.1015,0,1,0,12.2029,0V85.2453a6.1139,6.1139,0,0,1,6.1014-6.1015h24.4072a6.1139,6.1139,0,0,1,6.1014,6.1015v30.5086a6.1015,6.1015,0,0,0,12.2029,0V99.44a101.1209,101.1209,0,0,1,14.31,5.6551l-8.2081,39.9483c0,1.8305.61,4.2709,1.8305,5.4915a5.5381,5.5381,0,0,0,4.2709,1.8305h1.2206l41.9365-8.829a92.5374,92.5374,0,0,1,11.7587,45.4391v6.1014H88.928v-6.1014Zm12.2036,18.305H271.98v24.4072a112.4163,112.4163,0,0,1-22.83,68.2208l-.3562.1184-1.8305,1.8306a102.2541,102.2541,0,0,1-9.6956,11.1909c-14.367,13.3849-31.5038,21.492-48.0161,22.2953a6.8765,6.8765,0,0,0-2.6956-.5365,5.8407,5.8407,0,0,0-2.5415.5445,68.99,68.99,0,0,1-30.2585-9.1481c-9.934-5.7074-19.2792-13.9352-27.6081-24.3461l-1.8305-1.8305-.3562-.1185a112.42,112.42,0,0,1-22.83-68.2208V207.2805Zm76.1208,139.766-16.45,37.012-8.0533-11.0579-25.38-35.1416c-.1941-.1941-.4093-.3867-.6317-.5764l-6.69-9.1867,2.44-10.983c.8273.89,1.6662,1.7585,2.5132,2.6127C139.3242,334.3747,157.1894,344.6,177.2516,347.0465Zm-161.5452,53.66A20.9474,20.9474,0,0,1,27.3,381.79c38.8934-20.6626,66.8918-31.0328,91.8326-34.13l36.4123,50.0662-4.6227,23.1147H15.7064Zm341.6985,20.1362H222.19l-4.6228-23.1146,36.8063-50.6085c24.8536,3.75,53.3528,14.1126,91.4379,34.062a22.5759,22.5759,0,0,1,11.5937,19.5256Z" transform="translate(-3.5028 -39.4386)"/><path d="M485.365,296.7107c-30.8332-16.3507-54.4835-25.519-75.5378-29.0341l2.1789-2.9956a4.0185,4.0185,0,0,0,1.0334-4.1331l-4.8414-19.3653c12.8047-18.1016,20.3395-40.7321,20.3395-62.259V158.259h15.4981a5.1659,5.1659,0,1,0,0-10.3317H438.87v-5.1658c0-40.8122-26.8638-75.4251-67.16-86.7908v-1.034a15.5417,15.5417,0,0,0-15.4981-15.4981H335.5476A15.5418,15.5418,0,0,0,320.05,54.9367V55.97c-29.0517,8.1942-51.112,28.4767-61.1667,54.4494a5.619,5.619,0,0,1,2.5016,2.6632,5.7278,5.7278,0,0,1,3.2691,3.7074,5.4692,5.4692,0,0,1,2.4211,1.5269,77.4931,77.4931,0,0,1,5.8724-13.606l35.7374,7.0536h1.0334a12.1509,12.1509,0,0,0,4.1331-1.0334,4.1667,4.1667,0,0,0,1.55-4.65l-7.0923-34.5168a85.7035,85.7035,0,0,1,11.7417-4.61V80.7677a5.1659,5.1659,0,0,0,10.3317,0V54.9367a5.1764,5.1764,0,0,1,5.1659-5.1659h20.6645a5.1763,5.1763,0,0,1,5.1659,5.1659v25.83a5.1659,5.1659,0,0,0,10.3317,0V66.9548a85.6142,85.6142,0,0,1,12.116,4.7879l-6.95,33.8227a7.2108,7.2108,0,0,0,1.55,4.6494,4.689,4.689,0,0,0,3.616,1.55h1.0335l35.5059-7.4751a78.3472,78.3472,0,0,1,9.9557,38.4714v5.1658H286.3026c.3166.4664,1.4642,3.064,1.1351,2.2815.52,1.2372.7117,1.5594,1.2266,2.7259a55.3194,55.3194,0,0,1,2.016,5.3249H418.2054v20.6646a95.1787,95.1787,0,0,1-19.33,57.76l-.3016.1-1.55,1.55a86.579,86.579,0,0,1-8.2089,9.475c-12.164,11.3324-26.673,18.1964-40.6533,18.8765a5.8215,5.8215,0,0,0-2.2823-.4543,4.9452,4.9452,0,0,0-2.1517.461,58.4105,58.4105,0,0,1-25.6188-7.7453,83.9279,83.9279,0,0,1-23.3746-20.6129l-1.55-1.55-.3017-.1a93.7924,93.7924,0,0,1-10.714-17.9462,87.3681,87.3681,0,0,1-2.4632,16.5337c1.2307,2.012,2.5,3.996,3.8556,5.9117L278.72,260.5479c0,1.0334,0,3.1,1.0335,4.1331l2.1788,2.9956q-3.9346.657-7.9994,1.5807a41.066,41.066,0,0,1-3.0084,11.41,132.4265,132.4265,0,0,1,17.8711-3.5548l30.8289,42.389-3.9139,19.57H265.0981a5.41,5.41,0,0,1,.66.49,108.7848,108.7848,0,0,1,11.881,3.2034,6.1485,6.1485,0,0,1,3.53,2.8233,77.6752,77.6752,0,0,1,9.5546,2.6285,6.6667,6.6667,0,0,1,2.1024,1.1878H495.6972a4.88,4.88,0,0,0,5.1658-5.1658V322.0247C500.8637,311.6923,494.6638,301.8771,485.365,296.7107ZM279.2374,95.2325A89.8074,89.8074,0,0,1,296.6626,78.387q.8428-.5917,1.7043-1.1639l4.6346,22.6588Zm109.5215,4.6494,4.6346-22.6588q.8605.5724,1.705,1.1646a89.821,89.821,0,0,1,17.4246,16.8448ZM345.91,284.8925l7.7213,16.9877,5.05,11.362H333.482l9.3-21.3133ZM317.257,298.5676l-21.4881-29.753c-.1643-.1644-.3465-.3275-.5349-.4881l-5.6644-7.778,2.0662-9.2988c.7.754,1.4107,1.4888,2.1278,2.212,12.1277,12.4029,27.2535,21.06,44.2392,23.1315L324.0754,307.93Zm9.1986,40.505,3.1-15.4981h32.6107l2.9519,15.4981ZM353.757,276.592c16.6479-2.0306,31.509-10.3877,43.5117-22.3978.133-.1318.2666-.2622.3989-.3951l.096-.0979q1.1937-1.1975,2.36-2.4521l2.0662,9.2988-5.2773,7.2462a4.608,4.608,0,0,0-.922,1.0192l-21.4881,29.7531-6.8184,9.3622Zm136.7744,62.4812H376.05l-3.914-19.57,31.1625-42.8482c21.0425,3.1753,45.1717,11.9485,77.4168,28.839a19.1139,19.1139,0,0,1,9.8159,16.5315Z" transform="translate(-3.5028 -39.4386)"/></svg>