<svg xmlns="http://www.w3.org/2000/svg" width="166.7228mm" height="172.4731mm" viewBox="0 0 472.6 488.9"><title>ci-print-packaging</title><path d="M108.05,130.2V25.7a16.5591,16.5591,0,0,1,16.6-16.6h239.4a16.5591,16.5591,0,0,1,16.6,16.6V130.3" transform="translate(-8.15 0)" fill="#a7a9ac"/><path d="M364.15,479.7H124.75a16.5591,16.5591,0,0,1-16.6-16.6V252h272.7V463.2A16.6884,16.6884,0,0,1,364.15,479.7Z" transform="translate(-8.15 0)" fill="#ef7d25"/><path d="M48.55,382.8h50.5v80.4a25.692,25.692,0,0,0,25.7,25.7h239.4a25.692,25.692,0,0,0,25.7-25.7V382.8h50.5a40.4158,40.4158,0,0,0,40.4-40.4V161.5a40.4158,40.4158,0,0,0-40.4-40.4h-50.6V25.7A25.692,25.692,0,0,0,364.05,0H124.65a25.692,25.692,0,0,0-25.7,25.7v95.5H48.55a40.4158,40.4158,0,0,0-40.4,40.4V342.4A40.4158,40.4158,0,0,0,48.55,382.8Zm323.2,80.3a7.49,7.49,0,0,1-7.5,7.5H124.75a7.49,7.49,0,0,1-7.5-7.5V261h254.5ZM117.15,25.7a7.49,7.49,0,0,1,7.5-7.5h239.4a7.49,7.49,0,0,1,7.5,7.5v95.5H117.15ZM26.35,161.5a22.2137,22.2137,0,0,1,22.2-22.2h391.8a22.2137,22.2137,0,0,1,22.2,22.2V342.4a22.2137,22.2137,0,0,1-22.2,22.2h-50.5V252a9.1332,9.1332,0,0,0-9.1-9.1H108.15a9.1332,9.1332,0,0,0-9.1,9.1V364.7H48.55a22.2137,22.2137,0,0,1-22.2-22.2Z" transform="translate(-8.15 0)"/><path d="M77.75,199.9a9.0932,9.0932,0,0,0,6.4-2.7,8.9969,8.9969,0,0,0,2.6-6.4,9.4385,9.4385,0,0,0-2.6-6.4,9.0512,9.0512,0,1,0-6.4,15.5Z" transform="translate(-8.15 0)"/><path d="M314.65,356.8H174.25a9.1,9.1,0,1,0,0,18.2h140.5a9.1,9.1,0,1,0-.1-18.2Z" transform="translate(-8.15 0)"/><path d="M314.65,413H174.25a9.1,9.1,0,1,0,0,18.2h140.5a9.1,9.1,0,1,0-.1-18.2Z" transform="translate(-8.15 0)"/><path d="M314.65,300.6H174.25a9.1,9.1,0,0,0,0,18.2h140.5a9.1,9.1,0,1,0-.1-18.2Z" transform="translate(-8.15 0)"/></svg>