<svg xmlns="http://www.w3.org/2000/svg" width="163.6549mm" height="180.6219mm" viewBox="0 0 463.9037 511.999"><title>ci-professional-services</title><polygon points="148.325 315.83 177.385 315.83 184.702 471.911 139.831 471.911 148.325 315.83" fill="#e98f3a"/><path d="M310.7,260.177l-38.202-14.735-21.927-21.926a7.4768,7.4768,0,0,0-5.173-2.191V203.407a80.8488,80.8488,0,0,0,20.668-40.801.1985.1985,0,0,1,.02-.021,22.1186,22.1186,0,0,0,5.744-.417c10.306-2.11,17.787-11.678,17.787-22.751v-5.743a23.2275,23.2275,0,0,0-6.996-16.653c7.033-37.871,1.355-68.717-16.492-89.326C248.923,7.826,221.183-1.664,185.905.239c-32.856,1.776-53.958,16.993-60.433,22.358-9.112,1.184-35.099,7.751-35.099,44.089a196.0634,196.0634,0,0,0,5.565,46.131,22.9416,22.9416,0,0,0-12.934,20.942v5.657c0,11.073,7.48,20.641,17.788,22.751a22.111,22.111,0,0,0,5.743.417l.02.022a80.85,80.85,0,0,0,20.668,40.8v17.918a7.4768,7.4768,0,0,0-5.173,2.191l-21.926,21.926L57.155,262.015A51.7043,51.7043,0,0,0,24.09,312.338l6.103,152.379a7.5,7.5,0,0,0,7.489,7.2q.153,0,.306-.006a7.5,7.5,0,0,0,7.194-7.794L39.079,311.74a36.6773,36.6773,0,0,1,1.442-11.754l24.362,24.362a36.4775,36.4775,0,0,1,10.754,25.963V464.419a7.5,7.5,0,0,0,15,0V350.311a51.3763,51.3763,0,0,0-15.148-36.57L48,286.252a36.6533,36.6533,0,0,1,14.554-10.24l40.091-15.464,30.606,45.908a22.1576,22.1576,0,0,0,16.313,9.795q1.1115.11,2.216.109a22.1029,22.1029,0,0,0,11.505-3.247l-6.573,150.979a7.5,7.5,0,0,0,7.167,7.819c.111.005.222.007.332.007a7.4992,7.4992,0,0,0,7.487-7.174l6.095-139.989h17.043l6.095,139.989a7.5,7.5,0,0,0,7.487,7.174c.11,0,.221-.002.332-.007a7.5,7.5,0,0,0,7.167-7.819l-6.573-150.979a22.1,22.1,0,0,0,11.504,3.247c.735,0,1.475-.036,2.215-.109a22.1535,22.1535,0,0,0,16.308-9.794l30.606-45.908L305.3,274.174a7.5013,7.5013,0,0,0,5.4-13.997ZM121.289,159.797a14.9687,14.9687,0,0,0-15.553-12.192,7.1644,7.1644,0,0,1-1.937-.132c-3.304-.676-5.795-4.14-5.795-8.056V133.76c0-3.832,2.579-7.286,5.871-7.864a7.22,7.22,0,0,1,7.106,2.725,10.6078,10.6078,0,0,0,14.58,2.29,57.1648,57.1648,0,0,0,15.356-16.221,7.5,7.5,0,0,0-12.67-8.03,42.7182,42.7182,0,0,1-8.329,9.656,22.17,22.17,0,0,0-8.808-4.744,180.3235,180.3235,0,0,1-5.737-44.887c0-12.215,3.786-20.805,11.254-25.528a25.9345,25.9345,0,0,1,11.953-3.82,7.5728,7.5728,0,0,0,5.177-2.073c.192-.183,19.642-18.247,52.957-20.047,30.478-1.651,54.017,6.063,68.074,22.296,14.24,16.445,18.933,41.712,13.692,73.323a33.5562,33.5562,0,0,0-7.238.495L253.726,93.28a7.5013,7.5013,0,0,0-8.828-4.371c-.732.192-73.627,18.791-104.363-19.472a7.5,7.5,0,0,0-11.694,9.394c31.177,38.815,93.263,30.113,113.46,26.035l5.842,14.03a12.5707,12.5707,0,0,0,14.5259,7.449,17.5132,17.5132,0,0,1,6.056-.435,7.8133,7.8133,0,0,1,5.89,7.763v5.743c0,3.917-2.492,7.38-5.794,8.056a7.0947,7.0947,0,0,1-1.938.132,14.9665,14.9665,0,0,0-15.552,12.193,66.1118,66.1118,0,0,1-130.042,0ZM156.872,299.24a7.2412,7.2412,0,0,1-11.144-1.103l-30.834-46.252,12.8-12.8,47.644,41.688Zm21.569,10.516.495-11.368,7.373-7.374,7.374,7.374.495,11.368Zm7.868-39.314-44.088-38.577V215.918a81.09,81.09,0,0,0,88.175,0v15.947Zm40.583,27.694a7.2122,7.2122,0,0,1-5.311,3.189,7.13,7.13,0,0,1-5.832-2.085l-18.466-18.467,47.643-41.688,12.8,12.8Z" transform="translate(-24.0483 0)"/><polygon points="231.952 330.143 214.47 347.709 223.211 399.757 258.711 419.926 271.515 408.215 299.699 406.914 299.699 428.346 344.414 439.724 375.819 434.239 375.819 406.914 409 406.914 409 428.346 448.902 396.282 453.892 363.323 448.902 335.646 428.518 326.89 231.952 330.143" fill="#e98f3a"/><path d="M487.951,352.193a31.5832,31.5832,0,0,0-31.548-31.548H407.79V304.097a23.5588,23.5588,0,0,0-23.532-23.532H336.16a23.5588,23.5588,0,0,0-23.532,23.532v16.548H264.015a31.5832,31.5832,0,0,0-31.548,31.548V374.46c0,8.209,2.764,16.092,8.016,23.382v83.424a30.7681,30.7681,0,0,0,30.733,30.733H449.203a30.7681,30.7681,0,0,0,30.733-30.733V397.842c5.252-7.291,8.016-15.174,8.016-23.383l-.001-22.266ZM327.627,304.096h0a8.5432,8.5432,0,0,1,8.533-8.532h48.097a8.5417,8.5417,0,0,1,8.532,8.532v16.548H327.627ZM472.95,374.461c0,12.874-12.182,25.641-33.097,35.178v-1.332a7.5,7.5,0,0,0-7.5-7.5H400.289a7.5,7.5,0,0,0-7.5,7.5v24.048a23.5321,23.5321,0,0,0,47.0641,0v-6.414a116.0434,116.0434,0,0,0,25.081-13.467v68.793a15.7481,15.7481,0,0,1-15.732,15.732H271.216a15.7511,15.7511,0,0,1-15.733-15.733V412.473a116.0617,116.0617,0,0,0,25.081,13.468v6.414a23.5295,23.5295,0,0,0,46.45,5.321,251.0761,251.0761,0,0,0,33.195,2.179c2.74,0,5.517-.044,8.253-.131a7.5,7.5,0,0,0-.476-14.992c-2.579.082-5.195.1229-7.778.1229a235.4422,235.4422,0,0,1-32.581-2.232v-14.316a7.5,7.5,0,0,0-7.5-7.5H288.063a7.5,7.5,0,0,0-7.5,7.5v1.332c-20.915-9.5369-33.097-22.305-33.097-35.178v-22.267a16.5662,16.5662,0,0,1,16.548-16.548H456.402a16.5662,16.5662,0,0,1,16.548,16.548Zm-48.095,41.345v16.548a8.532,8.532,0,0,1-17.064,0V415.806ZM295.563,432.354V415.806h17.064v16.548a8.532,8.532,0,1,1-17.064,0Z" transform="translate(-24.0483 0)"/></svg>