<svg xmlns="http://www.w3.org/2000/svg" width="169.5442mm" height="180.6224mm" viewBox="0 0 480.5977 512.0006"><title>ci-pharmaceuticals</title><path d="M125.696,125.994a10,10,0,1,0,10,10A10.0036,10.0036,0,0,0,125.696,125.994Z" transform="translate(-15.701 0)"/><polygon points="6.817 235.805 311.95 235.805 311.95 332.095 230.624 384.143 219.364 403.01 6.817 403.01 6.817 235.805" fill="#ef7d25" stroke="#000" stroke-miterlimit="10"/><path d="M215.691,312.984H185.693V282.986a10,10,0,1,0-19.999,0v29.998H135.696a10,10,0,1,0,0,19.999h29.998v29.998a10,10,0,1,0,19.999,0V332.983h29.998a10,10,0,1,0,0-19.999Z" transform="translate(-15.701 0)"/><path d="M485.578,321.984a79.95,79.95,0,0,0-109.274-29.279l-40.618,23.45V229.319a50.3577,50.3577,0,0,0-9.999-29.998L275.69,132.66V104.274a30.0464,30.0464,0,0,0,19.999-28.279V29.998A30.0349,30.0349,0,0,0,265.689,0H85.698A30.0328,30.0328,0,0,0,55.699,29.998V75.996a30.0483,30.0483,0,0,0,19.999,28.279v28.386L25.697,199.326a50.3512,50.3512,0,0,0-9.996,29.993v193.66a50.0535,50.0535,0,0,0,49.997,49.997H226.4a79.915,79.915,0,0,0,108.664,28.279L456.3,431.258A80.0549,80.0549,0,0,0,485.578,321.984ZM75.698,29.998a10.0111,10.0111,0,0,1,9.999-10H265.688a10.0113,10.0113,0,0,1,10,10V75.996a10.01,10.01,0,0,1-10,9.999H85.698a10.01,10.01,0,0,1-9.999-9.999V29.998ZM41.701,211.319l51.996-69.326a9.9987,9.9987,0,0,0,2-6V105.995H255.689v19.999H165.694a10,10,0,0,0,0,20h94.995l48.993,65.322a30.2591,30.2591,0,0,1,5.792,14.674H35.913A30.2433,30.2433,0,0,1,41.701,211.319ZM65.699,452.977a30.0319,30.0319,0,0,1-29.998-29.998V412.88H217.376a80.1247,80.1247,0,0,0,.481,40.098H65.699Zm159.52-59.997H35.7V245.987H315.686V327.7l-60.619,35.002A79.4023,79.4023,0,0,0,225.219,392.98Zm99.847,90.955A59.9958,59.9958,0,1,1,265.069,380.02l54.277-31.338,59.997,103.915ZM446.3,413.939l-49.637,28.659L336.665,338.681l49.638-28.656A59.9953,59.9953,0,1,1,446.3,413.939Z" transform="translate(-15.701 0)"/></svg>