<svg xmlns="http://www.w3.org/2000/svg" width="163.2241mm" height="132.0459mm" viewBox="0 0 462.6825 374.3035"><title>ci-raw-materials</title><polygon points="8.809 116.822 73.871 9.769 382.014 9.769 455.125 110.966 410.595 116.822 8.809 116.822" fill="#e98f3a" stroke="#f07357" stroke-linecap="round" stroke-linejoin="round"/><path d="M91.8772,96.7959l-58.4427,87.47a21.59,21.59,0,0,0,2.0828,26.7358l209.8437,230.19a11.7141,11.7141,0,0,0,17.1244.0039L472.1093,211.4667a21.591,21.591,0,0,0,2.0223-26.8449L413.4551,94.8736a23.8015,23.8015,0,0,0-19.9028-10.2627L111.53,86.4321A23.7787,23.7787,0,0,0,91.8772,96.7959Z" transform="translate(-22.7544 -77.6104)" fill="none" stroke="#000" stroke-linecap="round" stroke-linejoin="round" stroke-width="14"/><line x1="8.8086" y1="116.8215" x2="455.6825" y2="116.8215" fill="none" stroke="#000" stroke-linecap="round" stroke-linejoin="round" stroke-width="14"/><line x1="230.4369" y1="7.951" x2="308.2344" y2="119.3325" fill="none" stroke="#000" stroke-linecap="round" stroke-linejoin="round" stroke-width="14"/><line x1="380.6806" y1="12.2464" x2="308.2344" y2="119.3325" fill="none" stroke="#000" stroke-linecap="round" stroke-linejoin="round" stroke-width="14"/><line x1="148.1039" y1="119.3325" x2="77.9454" y2="11.649" fill="none" stroke="#000" stroke-linecap="round" stroke-linejoin="round" stroke-width="14"/><line x1="230.4369" y1="7.951" x2="148.1039" y2="119.3325" fill="none" stroke="#000" stroke-linecap="round" stroke-linejoin="round" stroke-width="14"/><line x1="148.1039" y1="119.3325" x2="230.4369" y2="367.3035" fill="none" stroke="#000" stroke-miterlimit="10" stroke-width="14"/><line x1="308.2344" y1="119.3325" x2="230.4369" y2="367.3035" fill="none" stroke="#000" stroke-miterlimit="10" stroke-width="14"/></svg>