<svg xmlns="http://www.w3.org/2000/svg" width="179.2923mm" height="104.5495mm" viewBox="0 0 508.23 296.3609"><title>ci-travel</title><polygon points="228.037 160.602 235.992 163.408 338.38 88.95 265.338 79.06 43.743 22.24 35.459 48.698 234.543 139.349 242.351 142.819 231.941 154.096 228.037 160.602" fill="#ef7d25"/><path d="M471.6121,113.6548c-28.9886-9.0867-45.05,3.1962-65.2652,18.6622-2.7819,2.1287-5.6581,4.33-8.6592,6.5591L323.3291,192.948,51.0845,127.3144a12.0571,12.0571,0,0,0-14.1287,7.5248l-6.4671,17.41a12.0726,12.0726,0,0,0,6.4353,15.2249l200.0059,88.3L105.0873,351.6505,14.6259,325.5458a9.8649,9.8649,0,0,0-8.1111,17.75l58.1219,37.7728-5.5462,4.0325a12.0572,12.0572,0,0,0,7.0786,21.8125c.148,0,.2959,0,.445-.0088l74.0966-2.6559a12.0642,12.0642,0,0,0,6.24-2.01L413.215,225.1877c.057-.0384.1151-.0779.171-.1173,8.0378-5.6647,15.682-10.9611,23.0741-16.0875,24.3916-16.9063,43.6556-30.2591,56.4888-42.4368,10.0227-9.5119,22.4876-24.0309,15.0385-40.24C500.9033,110.91,478.8322,112.64,471.6121,113.6548ZM45.7662,350.504,89.367,363.0851l-11.44,8.3194ZM427.7154,196.3711c-7.39,5.1232-15.0309,10.42-23.0861,16.0963L139.2233,388.94,76.821,391.1815l4.5521-3.3113a7.6154,7.6154,0,0,0,2.7765-2.018l25.1533-18.2917a7.6865,7.6865,0,0,0,4.1049-2.9847L256.74,260.3441a7.6727,7.6727,0,0,0-1.4139-13.2245l-209.37-92.4333,4.37-11.77,272.8486,65.78a7.6726,7.6726,0,0,0,6.31-1.254l77.284-56.1993c3.1546-2.3413,6.0757-4.5763,8.9026-6.7378,18.5-14.1529,28.5973-21.8662,47.2519-17.3491a40.0741,40.0741,0,0,1-6.1195,16.3089l-1.505,2.3084a7.6727,7.6727,0,0,0,12.76,8.524q.0471-.0705.0926-.1421l1.5061-2.3084a55.3539,55.3539,0,0,0,8.5715-23.404c6.4451-.2916,14.1091.57,15.8146,4.2748C500.2051,146.1258,468.2164,168.2988,427.7154,196.3711Z" transform="translate(-2.023 -110.553)"/></svg>