<svg xmlns="http://www.w3.org/2000/svg" width="146.7554mm" height="165.1058mm" viewBox="0 0 415.9996 468.0166"><title>ci-telecom</title><circle cx="207.5008" cy="123.2468" r="31.501" fill="#e98f3a" stroke="#fff" stroke-miterlimit="10"/><path d="M403.328,3.384v-.04a8,8,0,0,0-13.016,9.305,191.5755,191.5755,0,0,1,0,222.736,8,8,0,0,0,1.818,11.167c.015.011.031.022.047.033a8,8,0,0,0,11.152-1.856A207.5776,207.5776,0,0,0,403.328,3.384Z" transform="translate(-26.0083 0.0006)" fill="#e98f3a"/><path d="M75.841,1.489l-.001-.001A8,8,0,0,0,64.688,3.344a207.5744,207.5744,0,0,0,0,241.344,8,8,0,0,0,13.016-9.304,191.5755,191.5755,0,0,1,0-222.736A8,8,0,0,0,75.841,1.489Z" transform="translate(-26.0083 0.0006)" fill="#e98f3a"/><path d="M126.72,40.704a8,8,0,0,0-1.424-11.224h0a8,8,0,0,0-11.2,1.392,151.3516,151.3516,0,0,0,0,186.288,8.0005,8.0005,0,0,0,12.624-9.832A135.3457,135.3457,0,0,1,126.72,40.704Z" transform="translate(-26.0083 0.0006)" fill="#e98f3a"/><path d="M342.722,29.479l-.001.001a8,8,0,0,0-1.392,11.2,135.343,135.343,0,0,1,0,166.624,8.0005,8.0005,0,0,0,12.624,9.832,151.3516,151.3516,0,0,0,0-186.288A8.0011,8.0011,0,0,0,342.722,29.479Z" transform="translate(-26.0083 0.0006)" fill="#e98f3a"/><path d="M292.248,69.288a79.7031,79.7031,0,0,1,0,109.456,8.001,8.001,0,0,0,.34,11.309l.004.003a7.999,7.999,0,0,0,11.308-.348l.004-.004a95.7032,95.7032,0,0,0,0-131.376,8,8,0,0,0-11.742,10.868C292.19,69.227,292.219,69.258,292.248,69.288Z" transform="translate(-26.0083 0.0006)" fill="#e98f3a"/><path d="M169.936,192.224a8,8,0,0,0,5.832-13.48,79.7031,79.7031,0,0,1,0-109.456,8,8,0,0,0-11.57-11.052c-.029.03-.058.061-.086.092a95.7032,95.7032,0,0,0,0,131.376A7.9988,7.9988,0,0,0,169.936,192.224Z" transform="translate(-26.0083 0.0006)" fill="#e98f3a"/><path d="M337.768,458.024,259.872,154.272a40,40,0,1,0-51.728,0L130.256,458.024a8,8,0,0,0,5.755,9.741l.013.003a8.1453,8.1453,0,0,0,1.984.248,8,8,0,0,0,7.744-6.008l2.672-10.4a8.0262,8.0262,0,0,0,1.304-.496L299.272,372.4,322.248,462a7.9987,7.9987,0,0,0,7.76,6.016,8.1066,8.1066,0,0,0,1.992-.248,7.999,7.999,0,0,0,5.771-9.731ZM260.64,221.696l-43.504-38.072,5.504-21.456a35.8892,35.8892,0,0,0,22.736,0Zm-26.632-121.68a24,24,0,1,1-24,24A24,24,0,0,1,234.008,100.016Zm-21.32,100.968,48.184,42.176-71.2,47.44Zm-58.96,229.928,28.72-112,97.6,45.536ZM194.28,306.784l75.304-50.208L294.44,353.52Z" transform="translate(-26.0083 0.0006)"/></svg>