<svg xmlns="http://www.w3.org/2000/svg" width="160mm" height="160mm" viewBox="0 0 453.5433 453.5433"><title>company-clients</title><polygon points="238.768 340.157 268.868 362.835 268.868 413.3 268.868 445.908 182.957 445.908 182.957 371.912 204.094 347.717 238.768 340.157" fill="#e98f3a"/><polygon points="214.311 335.541 199.888 315.474 204.094 287.244 211.176 283.493 234.482 281.612 249.904 296.169 257.615 321.396 237.513 335.541 214.311 335.541" fill="#e98f3a"/><path d="M191.2209,382.768,170.245,366.1417,183.51,346.768l-6.3447-19.7665-16.8963-7.5588-13.34,3.47v23.4217l7.5591,19.8075-10.701,9.6865L131.811,391.0089l-12.3129,17.3494-10.41-11.98-10.3976-8.4052s8.494-12.93,7.7109-14.272,0-25.1979,0-25.1979l-19.945-9.1084-23.3442,4.07v20.4359l8.2261,27.5422-11.202,8.2409L48.3655,426.6142V456.85l4.06,7.4831H445.6667l-7.6988-62.0475-18.9128-12.1446V373.7008l5.3586-10.0172-8.2409-12.66-14.747-3.8219-12.6069,1.3012v23.4217l2.884,11.7108v8.2527l-13.2651,4.49H361.9559l-10.3686-11.7828-13.0531-16.14,11.6844-12.5783V343.4646l-6.754-15.1181-19.6774-5.8677-9.1928,4.5227-7.7108,7.6219v22.12l7.7108,6.0722v5.6386L299.1728,381.26l-4.4458,12.7853L276.04,379.7318Z" transform="translate(-18.4252 -18.4252)" fill="#e98f3a"/><rect x="157.3741" y="149.6632" width="15.4217" height="15.4217"/><rect x="157.3741" y="180.5066" width="15.4217" height="15.4217"/><rect x="157.3741" y="211.35" width="15.4217" height="15.4217"/><rect x="157.3741" y="242.1933" width="15.4217" height="15.4217"/><rect x="188.2174" y="149.6632" width="15.4217" height="15.4217"/><rect x="188.2174" y="180.5066" width="15.4217" height="15.4217"/><rect x="188.2174" y="211.35" width="15.4217" height="15.4217"/><rect x="188.2174" y="242.1933" width="15.4217" height="15.4217"/><rect x="219.0608" y="149.6632" width="15.4217" height="15.4217"/><rect x="219.0608" y="180.5066" width="15.4217" height="15.4217"/><rect x="219.0608" y="211.35" width="15.4217" height="15.4217"/><rect x="219.0608" y="242.1933" width="15.4217" height="15.4217"/><rect x="249.9042" y="149.6632" width="15.4217" height="15.4217"/><rect x="188.2174" y="118.8198" width="15.4217" height="15.4217"/><rect x="219.0608" y="118.8198" width="15.4217" height="15.4217"/><rect x="249.9042" y="118.8198" width="15.4217" height="15.4217"/><rect x="249.9042" y="180.5066" width="15.4217" height="15.4217"/><rect x="249.9042" y="211.35" width="15.4217" height="15.4217"/><rect x="249.9042" y="242.1933" width="15.4217" height="15.4217"/><rect x="280.7476" y="149.6632" width="15.4217" height="15.4217"/><rect x="280.7476" y="180.5066" width="15.4217" height="15.4217"/><rect x="280.7476" y="211.35" width="15.4217" height="15.4217"/><rect x="280.7476" y="242.1933" width="15.4217" height="15.4217"/><path d="M464.418,131.811H351.0236V25.9843a7.5545,7.5545,0,0,0-7.55-7.5591H146.9291a7.5545,7.5545,0,0,0-7.559,7.5506V131.811H25.9843a7.5546,7.5546,0,0,0-7.5591,7.5506V411.4961a7.5546,7.5546,0,0,0,7.5505,7.559h15.81a45.3584,45.3584,0,0,0-.6831,7.5591V464.41a7.5545,7.5545,0,0,0,7.5505,7.559H441.7323a7.5545,7.5545,0,0,0,7.559-7.55V426.6142a45.1576,45.1576,0,0,0-.6831-7.5591h15.8012a7.5545,7.5545,0,0,0,7.5591-7.55V139.37A7.5547,7.5547,0,0,0,464.418,131.811ZM343.4646,343.4646a15.1182,15.1182,0,1,1-15.1181-15.1181A15.1176,15.1176,0,0,1,343.4646,343.4646ZM162.0472,328.3465a15.1181,15.1181,0,1,1-15.1181,15.1181A15.1175,15.1175,0,0,1,162.0472,328.3465ZM116.6929,456.85H56.2205V426.6142a30.2362,30.2362,0,0,1,60.4724,0ZM71.3386,366.1417A15.1181,15.1181,0,1,1,86.4567,381.26,15.1176,15.1176,0,0,1,71.3386,366.1417Zm46.5,27.8032a45.5679,45.5679,0,0,0-9.5093-7.0385,30.2365,30.2365,0,1,0-43.7442-.0009,45.6473,45.6473,0,0,0-17.3462,17.03H33.5433V146.9291H139.37V323.675a29.8243,29.8243,0,0,0,.805,40.5543A45.4827,45.4827,0,0,0,117.8381,393.9449ZM192.2835,456.85H131.811V403.937a30.2363,30.2363,0,0,1,60.4725,0Zm90.7086,0h-75.59V403.937a37.7953,37.7953,0,1,1,75.59,0ZM222.52,328.3465a22.6772,22.6772,0,1,1,22.6772,22.6771A22.6769,22.6769,0,0,1,222.52,328.3465Zm68.7137,49.6015a53.2449,53.2449,0,0,0-21.6879-20.9386,37.7963,37.7963,0,1,0-48.6973,0A53.2424,53.2424,0,0,0,199.16,377.9481a45.6557,45.6557,0,0,0-15.241-13.7188,30.0193,30.0193,0,0,0-29.4311-49.9275V33.5433H335.9055V314.3017a30.1033,30.1033,0,0,0-29.4312,49.9276A45.6551,45.6551,0,0,0,291.2334,377.948Zm67.3493,48.6662V456.85H298.11V403.937a30.2363,30.2363,0,0,1,60.4725,0ZM434.1732,456.85H373.7008V426.6142a30.2362,30.2362,0,0,1,60.4724,0Zm-45.3543-90.7087A15.1181,15.1181,0,1,1,403.937,381.26,15.1176,15.1176,0,0,1,388.8189,366.1417ZM456.85,403.937H443.1553a45.6473,45.6473,0,0,0-17.3462-17.0305,30.2365,30.2365,0,1,0-43.7442-.001,45.5383,45.5383,0,0,0-9.5093,7.0385,45.48,45.48,0,0,0-22.337-29.7156,29.8244,29.8244,0,0,0,.806-40.5544V146.9291H456.8513V403.937Z" transform="translate(-18.4252 -18.4252)"/><rect x="357.856" y="172.7957" width="15.4217" height="123.3735"/><rect x="404.1211" y="172.7957" width="15.4217" height="123.3735"/><rect x="34.0006" y="172.7957" width="15.4217" height="123.3735"/><rect x="80.2656" y="172.7957" width="15.4217" height="123.3735"/><path d="M293.2059,37.1969h-96.009a7.9952,7.9952,0,0,0-8,7.991v64.009a7.9951,7.9951,0,0,0,7.9909,8h96.0091a7.9953,7.9953,0,0,0,8-7.991V45.1969A7.9954,7.9954,0,0,0,293.2059,37.1969Zm-8.009,64h-80v-48h80Z" transform="translate(-18.4252 -18.4252)"/></svg>