<svg xmlns="http://www.w3.org/2000/svg" width="169.317mm" height="166.512mm" viewBox="0 0 479.9536 472.0025"><title>en-collaborate</title><rect x="166.3501" y="423.3721" width="156.1446" height="41.6386" fill="#ef7d25"/><polygon points="375.41 10.456 349.169 36.697 438.302 135.372 470.398 103.276 375.41 10.456" fill="#ef7d25"/><polygon points="107.796 10.456 8.904 108.914 42.302 142.312 142.869 41.252 107.796 10.456" fill="#ef7d25"/><path d="M477.643,102.356l-.034-.034h0l-96-96a7.8661,7.8661,0,0,0-5.804-2.344,7.98,7.98,0,0,0-5.711,2.555l-29.719,32a8.003,8.003,0,0,0,.125,11.023l2.253,2.317-11.8,11.8-18.641-4.656a48.8445,48.8445,0,0,0-46.43,13.188l-34.0039,39.629-39.512-39.512a41.9635,41.9635,0,0,0-43.125-10.188,8.1611,8.1611,0,0,0-2.492,1.359l-2.172,1.75-5.266-5.265L149.655,49.634a7.9966,7.9966,0,0,0,.0031-11.309l-.0031-.003-32-32a7.9965,7.9965,0,0,0-11.309-.003l-.003.003-104,104a7.9965,7.9965,0,0,0-.003,11.309l.003.003,32,32a7.9977,7.9977,0,0,0,11.31.003l.003-.003,3.613-3.613,18.957,18.957L63.57,187.619a48.6321,48.6321,0,0,0,12.664,45.938L144,303.273v62.541a38.7859,38.7859,0,0,0,20.922,34.031A20.8942,20.8942,0,0,1,176,418.314v1.664h-8a7.9952,7.9952,0,0,0-8,7.991v40.009a7.9952,7.9952,0,0,0,7.991,8H320a7.9952,7.9952,0,0,0,8-7.991V427.978a7.9952,7.9952,0,0,0-7.991-8H312v-8.039l12.68-11.695A48.7074,48.7074,0,0,0,344,361.525V267.809a42.1268,42.1268,0,0,0,24.977-12.253l42.289-45.922a36.7215,36.7215,0,0,0,8.922-37.805c-1.282-3.858,5.609-16.484,13.819-26.167a7.98,7.98,0,0,0,5.501,2.315h.078a7.996,7.996,0,0,0,5.625-2.313l32.367-32A7.9954,7.9954,0,0,0,477.643,102.356ZM40,136.666,19.313,115.978,112,23.29l20.688,20.687ZM144.709,281.048,87.625,222.322a32.646,32.646,0,0,1-8.539-30.828l5.758-23.031a7.9819,7.9819,0,0,0-2.102-7.594l-22.16-22.16L128,71.291l10.344,10.344a8.0049,8.0049,0,0,0,10.672.578l6.57-5.289a26.04,26.04,0,0,1,25.469,6.711l44.1,44.1-.076.057a28.0677,28.0677,0,0,0-7.719,12.039,28.1324,28.1324,0,0,0-16.219-3.258,28.8788,28.8788,0,0,0-25.141,29v83.664A40.1,40.1,0,0,0,144.709,281.048ZM312,459.978H176v-24H312Zm16-98.453a33.1481,33.1481,0,0,1-13.547,26.438l-15.867,14.578A7.995,7.995,0,0,0,296,408.432v11.547H192v-1.664a36.8463,36.8463,0,0,0-19.555-32.586A22.8266,22.8266,0,0,1,160,365.815V288.432a23.96,23.96,0,0,1,16-22.526v50.073h16V165.572a12.7523,12.7523,0,0,1,10.734-13.078,12.0619,12.0619,0,0,1,9.313,3.039A11.8723,11.8723,0,0,1,216,164.431V283.978h16V148.431a11.9954,11.9954,0,0,1,11.987-12.004q.555,0,1.107.05A13.063,13.063,0,0,1,256,149.844V283.977h16V172.431a11.9954,11.9954,0,0,1,11.987-12.004q.555,0,1.107.05A13.063,13.063,0,0,1,296,173.844V283.977h16V217.904a23.96,23.96,0,0,1,16,22.526Zm77.015-184.633h0a20.97,20.97,0,0,1-5.289,21.664l-42.289,45.922a26.13,26.13,0,0,1-13.438,7.242V240.431a40.0676,40.0676,0,0,0-32-39.195V173.845a28.9636,28.9636,0,0,0-25.516-29.305,28.4609,28.4609,0,0,0-14.602,2.656,28.8074,28.8074,0,0,0-25.398-26.656c-.34-.029-.675.035-1.015.019l32.14-37.487a32.6615,32.6615,0,0,1,30.828-8.539l23.031,5.758a7.99,7.99,0,0,0,7.594-2.102l14.845-14.845,68.93,70.885C415.452,142.795,400.283,162.702,405.015,176.892Zm34.681-48.274L357.273,43.852,376.164,23.5l84.445,84.445Z" transform="translate(0.0007 -3.9755)"/></svg>