<svg xmlns="http://www.w3.org/2000/svg" width="156.6121mm" height="160.9462mm" viewBox="0 0 443.9398 456.2253"><title>ci-facilities</title><polygon points="14.941 88.856 162.832 91.169 167.892 133.566 108.854 140.072 108.854 121.855 76.807 116.86 68.402 125.415 66.239 170.745 119.53 170.745 120.687 200.578 68.349 203.759 66.239 255.661 127.337 254.94 135.145 291.663 63.47 287.951 63.47 326.795 63.47 340.576 144.398 341.207 129.94 375.807 66.239 376.892 63.47 426.299 132.542 427.566 139.169 447.807 8 448.225 14.941 88.856" fill="#e98f3a"/><polygon points="166.59 447.807 106.084 448.225 108.854 133.428 170.494 127.06 166.59 447.807" fill="#e98f3a"/><path d="M23.94,86.0723H151.153a15.94,15.94,0,0,1,15.94,15.94V448.2253a0,0,0,0,1,0,0H8a0,0,0,0,1,0,0V102.012A15.94,15.94,0,0,1,23.94,86.0723Z" fill="none" stroke="#231f20" stroke-miterlimit="10" stroke-width="16"/><path d="M182.53,8H420a15.94,15.94,0,0,1,15.94,15.94V447.8072a0,0,0,0,1,0,0H166.59a0,0,0,0,1,0,0V23.94A15.94,15.94,0,0,1,182.53,8Z" fill="none" stroke="#231f20" stroke-miterlimit="10" stroke-width="16"/><path d="M228.9518,31.5606h10.7349a15.94,15.94,0,0,1,15.94,15.94V84.8174a0,0,0,0,1,0,0H213.0121a0,0,0,0,1,0,0V47.5A15.94,15.94,0,0,1,228.9518,31.5606Z" fill="none" stroke="#231f20" stroke-miterlimit="10" stroke-width="12"/><path d="M228.9518,116.86h10.7349a15.94,15.94,0,0,1,15.94,15.94v37.3171a0,0,0,0,1,0,0H213.0121a0,0,0,0,1,0,0V132.8A15.94,15.94,0,0,1,228.9518,116.86Z" fill="none" stroke="#231f20" stroke-miterlimit="10" stroke-width="12"/><path d="M228.9518,202.5468h10.7349a15.94,15.94,0,0,1,15.94,15.94v37.3171a0,0,0,0,1,0,0H213.0121a0,0,0,0,1,0,0V218.4866A15.94,15.94,0,0,1,228.9518,202.5468Z" fill="none" stroke="#231f20" stroke-miterlimit="10" stroke-width="12"/><path d="M365.3555,116.86H376.09a15.94,15.94,0,0,1,15.94,15.94v37.3171a0,0,0,0,1,0,0H349.4157a0,0,0,0,1,0,0V132.8A15.94,15.94,0,0,1,365.3555,116.86Z" fill="none" stroke="#231f20" stroke-miterlimit="10" stroke-width="12"/><path d="M365.3555,201.7451H376.09a15.94,15.94,0,0,1,15.94,15.94v37.3171a0,0,0,0,1,0,0H349.4157a0,0,0,0,1,0,0V217.6849a15.94,15.94,0,0,1,15.94-15.94Z" fill="none" stroke="#231f20" stroke-miterlimit="10" stroke-width="12"/><path d="M229.1958,287.9505h10.7349a15.94,15.94,0,0,1,15.94,15.94v37.3171a0,0,0,0,1,0,0H213.2561a0,0,0,0,1,0,0V303.89A15.94,15.94,0,0,1,229.1958,287.9505Z" fill="none" stroke="#231f20" stroke-miterlimit="10" stroke-width="12"/><path d="M365.5994,287.1488h10.7349a15.94,15.94,0,0,1,15.94,15.94v37.3171a0,0,0,0,1,0,0H349.66a0,0,0,0,1,0,0V303.0886A15.94,15.94,0,0,1,365.5994,287.1488Z" fill="none" stroke="#231f20" stroke-miterlimit="10" stroke-width="12"/><path d="M82.1789,117.4883H92.9139a15.94,15.94,0,0,1,15.94,15.94v37.3171a0,0,0,0,1,0,0H66.2392a0,0,0,0,1,0,0V133.428A15.94,15.94,0,0,1,82.1789,117.4883Z" fill="none" stroke="#231f20" stroke-miterlimit="10" stroke-width="12"/><path d="M82.1789,202.4039H92.9139a15.94,15.94,0,0,1,15.94,15.94v37.3171a0,0,0,0,1,0,0H66.2392a0,0,0,0,1,0,0V218.3437a15.94,15.94,0,0,1,15.94-15.94Z" fill="none" stroke="#231f20" stroke-miterlimit="10" stroke-width="12"/><path d="M79.41,287.32H90.1446a15.94,15.94,0,0,1,15.94,15.94v37.3171a0,0,0,0,1,0,0H63.47a0,0,0,0,1,0,0V303.2594a15.94,15.94,0,0,1,15.94-15.94Z" fill="none" stroke="#231f20" stroke-miterlimit="10" stroke-width="12"/><path d="M79.41,373.0425H90.1446a15.94,15.94,0,0,1,15.94,15.94v37.3171a0,0,0,0,1,0,0H63.47a0,0,0,0,1,0,0V388.9823A15.94,15.94,0,0,1,79.41,373.0425Z" fill="none" stroke="#231f20" stroke-miterlimit="10" stroke-width="12"/><path d="M365.3555,31.5606H376.09A15.94,15.94,0,0,1,392.03,47.5V84.8174a0,0,0,0,1,0,0H349.4157a0,0,0,0,1,0,0V47.5A15.94,15.94,0,0,1,365.3555,31.5606Z" fill="none" stroke="#231f20" stroke-miterlimit="10" stroke-width="12"/><path d="M292.3193,356.0723h17.8916a15.94,15.94,0,0,1,15.94,15.94v75.7952a0,0,0,0,1,0,0H276.38a0,0,0,0,1,0,0V372.012A15.94,15.94,0,0,1,292.3193,356.0723Z" fill="#fff" stroke="#231f20" stroke-miterlimit="10" stroke-width="12"/></svg>