<svg xmlns="http://www.w3.org/2000/svg" width="180.6222mm" height="159.5033mm" viewBox="0 0 512 452.1355"><title>ci-marketing</title><polygon points="437.819 121.511 437.819 238.62 493.627 216.355 496.807 161.704 472.807 134.523 451.988 118.909 437.819 121.511" fill="#ef7d25"/><polygon points="61.627 112.258 82.446 89.126 162.542 91.15 164.277 262.042 80.711 266.09 64.518 245.56 61.627 112.258" fill="#ef7d25"/><path d="M449.511,137.648V55.268a25.3273,25.3273,0,0,0-37.738-22.061,589.2132,589.2132,0,0,1-245.805,73.802c-.667.049-79.372.393-79.372.393A38.6937,38.6937,0,0,0,48.23,141.493H32.075A32.1114,32.1114,0,0,0,0,173.567v70.468A32.1122,32.1122,0,0,0,32.075,276.11H48.228a38.7313,38.7313,0,0,0,22.785,30.799l57.485,158.648a25.1665,25.1665,0,0,0,23.578,16.511h57.687a25.089,25.089,0,0,0,23.581-33.657L183.955,312.174a588.4108,588.4108,0,0,1,227.817,72.183,25.1661,25.1661,0,0,0,25.249-.248,25.0568,25.0568,0,0,0,12.489-21.816v-82.38a71.73,71.73,0,0,0,.001-142.265ZM47.951,251.372H32.075a7.3453,7.3453,0,0,1-7.338-7.338V173.567a7.3463,7.3463,0,0,1,7.338-7.337H47.951ZM80.93,284.245a13.918,13.918,0,0,1-8.242-12.688V146.044h.001a13.9219,13.9219,0,0,1,13.906-13.905h67.333V285.463s-67.92-.026-68.213-.044A12.97,12.97,0,0,1,80.93,284.245ZM210.091,456.853a.2759.2759,0,0,1-.041.324.283.283,0,0,1-.288.151H152.075a.3525.3525,0,0,1-.327-.215L98.515,310.199h58.411Zm214.683-94.559a.4492.4492,0,0,1-.267.479.5723.5723,0,0,1-.66-.006,613.2025,613.2025,0,0,0-245.182-75.96V130.767a613.3728,613.3728,0,0,0,245.179-75.97.5788.5788,0,0,1,.663-.006.4468.4468,0,0,1,.267.477Zm24.737-107.421V162.688a47.0138,47.0138,0,0,1,0,92.185Z" transform="translate(0 -29.9325)"/></svg>