<svg xmlns="http://www.w3.org/2000/svg" width="180.6218mm" height="130.2762mm" viewBox="0 0 511.9988 369.287"><title>pe-business-partnering</title><polygon points="123.658 4.107 98.877 26.737 12.325 124.402 80.421 195.952 190.301 85.583 196.514 59.939 138.469 4.107 123.658 4.107" fill="#ef7d25"/><path d="M509.07,194.061,414.3,99.29a10.0041,10.0041,0,0,0-14.148,14.148l87.697,87.696-51.274,51.273a4.0317,4.0317,0,0,1-5.695,0L329.63,151.158a4.0311,4.0311,0,0,1,0-5.696l34.411-34.413a10.0038,10.0038,0,0,0-14.148-14.147l-34.411,34.411a24.0632,24.0632,0,0,0-5.1,26.412l-11.638,11.638H217.375l-14.6821-14.682a24.1517,24.1517,0,0,0,.862-6.392,23.879,23.879,0,0,0-7.04-16.995L163.034,97.813a10.0041,10.0041,0,1,0-14.148,14.148l33.482,33.481a4.0246,4.0246,0,0,1-.0011,5.695l-2.786,2.786-98.495,98.471c-.032.032-.059.067-.09.099a4.0158,4.0158,0,0,1-5.5749-.106L24.15,201.114l88.876-88.875A10.0038,10.0038,0,0,0,98.878,98.092L2.93,194.041a10.0045,10.0045,0,0,0,0,14.147l58.346,58.347A23.9736,23.9736,0,0,0,86.6,272.056l32.843,32.843a34.1728,34.1728,0,0,0,30.191,50.216c.042,0,.084-.003.126-.003v.006a34.2274,34.2274,0,0,0,34.064,34.188l-.001.044a34.1743,34.1743,0,0,0,50.246,30.176l12.227,12.227a30.3494,30.3494,0,0,0,51.782-20.171,30.8877,30.8877,0,0,0,29.362-31.284l-.001-.053a33.6307,33.6307,0,0,0,31.5-33.615,32.7,32.7,0,0,0,28.229-47.385l32.81-30a24.0242,24.0242,0,0,0,30.744-2.692l58.346-58.347A10,10,0,0,0,509.07,194.061ZM149.635,335.11a14.1845,14.1845,0,1,1,14.185-14.185A14.2006,14.2006,0,0,1,149.635,335.11Zm44.881,29.441q-.61.579-1.192,1.186a14.248,14.248,0,1,1,1.192-1.186Zm33.664,34.674c-.046.044-.095.082-.14.127-.05.05-.091.104-.139.154a14.1661,14.1661,0,0,1-20.452-19.585q.61-.579,1.192-1.186a14.166,14.166,0,0,1,19.539,20.49Zm138.76-76.298a12.6782,12.6782,0,0,1-17.926.001l-20.782-20.783a10.0038,10.0038,0,1,0-14.148,14.147l20.781,20.782.002.001.063.063a13.5712,13.5712,0,0,1-18.926,19.452l-20.011-18.942a10.004,10.004,0,0,0-13.755,14.53l21.787,20.625a10.9067,10.9067,0,1,1-15.2091,15.634l-10.101-10.101a10.0034,10.0034,0,1,0-14.148,14.146l10.5,10.5a10.3418,10.3418,0,1,1-14.626,14.625l-12.235-12.235a34.17,34.17,0,0,0-30.068-50.207l.001-.044a34.23,34.23,0,0,0-34.191-34.191c-.042,0-.083.003-.125.003v-.006a34.174,34.174,0,0,0-50.24-30.178l-31.265-31.2641,88.44-88.441,15.399,15.4a10.006,10.006,0,0,0,7.073,2.93h12.948l-39.486,39.486a31.9651,31.9651,0,0,0,45.206,45.205l33.491-33.492,36.665.402,64.825,63.967a12.6776,12.6776,0,0,1,.0611,17.9851Zm7.229-38.903-60.938-60.131-.003-.003-.088-.087a9.9771,9.9771,0,0,0-8.201-2.808l-43.539-.477a10.03,10.03,0,0,0-7.183,2.929L217.75,259.915a11.9575,11.9575,0,0,1-16.91-16.911l53.633-53.633h48.416a10.0023,10.0023,0,0,0,7.073-2.93l13.328-13.328,82.237,82.237Z" transform="translate(-0.0005 -71.355)"/><circle cx="438.3355" cy="134.385" r="9.983"/><circle cx="72.6435" cy="135.385" r="9.983"/><circle cx="131.0635" cy="10.784" r="9.983"/><circle cx="380.7565" cy="9.983" r="9.983"/></svg>