<svg xmlns="http://www.w3.org/2000/svg" width="180.6222mm" height="180.6222mm" viewBox="0 0 512 512"><title>pe-category-management</title><polygon points="164.855 344.311 177.644 325.519 195.711 306.021 281.5 293.275 323.024 325.95 337.771 358.625 277.627 377.709 239.458 384.938 177 362.095 164.855 344.311" fill="#ef7d25"/><path d="M476.435,220.435A35.623,35.623,0,0,0,442.31,246H393.688a137.4773,137.4773,0,0,0-33.299-80.246l34.412-34.412a35.5441,35.5441,0,1,0-14.142-14.143l-34.412,34.412a137.48,137.48,0,0,0-80.246-33.299V69.69a35.5655,35.5655,0,1,0-20.001,0v48.622a137.4773,137.4773,0,0,0-80.246,33.299l-34.412-34.412a35.5386,35.5386,0,1,0-14.143,14.143l34.412,34.412A137.4773,137.4773,0,0,0,118.312,246H69.69a35.565,35.565,0,1,0,0,20h48.622a137.4773,137.4773,0,0,0,33.299,80.246l-34.423,34.423a35.5661,35.5661,0,1,0,14.143,14.143l34.424-34.424a137.48,137.48,0,0,0,80.246,33.299v48.622A35.5672,35.5672,0,1,0,266,442.31V393.688a137.3578,137.3578,0,0,0,75.089-29.048,9.9683,9.9683,0,0,0,1.619-1.301c1.194-.966,2.377-1.945,3.538-2.95l34.423,34.423a35.5661,35.5661,0,1,0,14.143-14.143l-34.4231-34.423A137.48,137.48,0,0,0,393.688,266H442.31a35.5628,35.5628,0,1,0,34.125-45.565ZM400.864,89.123a15.5655,15.5655,0,1,1,.002,22.015l-.002-.002-.003-.002a15.5644,15.5644,0,0,1,.003-22.011ZM111.135,111.136a15.5585,15.5585,0,1,1,0-22.013A15.582,15.582,0,0,1,111.135,111.136ZM35.565,271.565A15.565,15.565,0,1,1,51.131,256,15.5821,15.5821,0,0,1,35.565,271.565Zm75.571,151.312a15.5585,15.5585,0,1,1,0-22.013A15.4645,15.4645,0,0,1,111.136,422.877Zm289.726-22.01.003-.002.002-.002a14.0942,14.0942,0,1,1-.005.004ZM240.435,35.565A15.5655,15.5655,0,1,1,256,51.131,15.5821,15.5821,0,0,1,240.435,35.565Zm31.131,440.87A15.5655,15.5655,0,1,1,256,460.87,15.5829,15.5829,0,0,1,271.566,476.435Zm68.782-137.931a89.792,89.792,0,0,0-26.62-34.589,92.0129,92.0129,0,0,0-25.945-14.378,47.9671,47.9671,0,1,0-67.121,1.343,91.7614,91.7614,0,0,0-24.951,15.141,10,10,0,1,0,12.978,15.217A72.9,72.9,0,0,1,256,303.965c31.269,0,58.976,19.98,68.226,48.326a118.423,118.423,0,1,1,16.122-13.787ZM281.5,256a27.965,27.965,0,1,1-27.965-27.965A27.9966,27.9966,0,0,1,281.5,256Zm194.935,15.565A15.565,15.565,0,1,1,492,256,15.5829,15.5829,0,0,1,476.435,271.565Z" transform="translate(0 0)"/><circle cx="185.5" cy="331.7" r="10"/></svg>