<svg xmlns="http://www.w3.org/2000/svg" width="148.1667mm" height="180.6222mm" viewBox="0 0 420 512"><title>pe-risk-governance-compliance</title><path d="M256,40.01A9.9891,9.9891,0,1,0,265.99,50,9.9687,9.9687,0,0,0,256,40.01Z" transform="translate(-46 0)"/><circle cx="210.8072" cy="234.4319" r="78.3614" fill="#ef7d25"/><path d="M456,60a50.0567,50.0567,0,0,1-50-50A10.0011,10.0011,0,0,0,396,0H116a10.0011,10.0011,0,0,0-10,10A50.0567,50.0567,0,0,1,56,60,10.0011,10.0011,0,0,0,46,70V233.19A290.4666,290.4666,0,0,0,253.128,511.579a9.9987,9.9987,0,0,0,5.745-.001A290.4986,290.4986,0,0,0,466,233.19V70A10.0011,10.0011,0,0,0,456,60ZM446,233.19c0,119.448-76.221,222.892-190,258.353A270.3925,270.3925,0,0,1,66,233.19V79.288A70.1644,70.1644,0,0,0,125.288,20H386.712A70.1644,70.1644,0,0,0,446,79.288Z" transform="translate(-46 0)"/><path d="M420.012,92.49A90.0786,90.0786,0,0,1,373.51,45.988,10,10,0,0,0,364.35,40H295.98a10,10,0,0,0,0,20h62.047A109.933,109.933,0,0,0,406,107.973V233.19c0,97.863-58.749,182.303-150,216.104C164.749,415.492,106,331.053,106,233.19V107.973A109.9381,109.9381,0,0,0,153.973,60H216.02a10,10,0,0,0,0-20H147.65a10.0016,10.0016,0,0,0-9.16,5.988A90.0786,90.0786,0,0,1,91.988,92.49,10.0026,10.0026,0,0,0,86,101.65V233.19c0,107.213,66.311,200.653,166.664,236.166a9.9976,9.9976,0,0,0,6.672,0C359.605,433.873,426,340.49,426,233.19V101.65A10.0016,10.0016,0,0,0,420.012,92.49Z" transform="translate(-46 0)"/><path d="M256,146a90,90,0,1,0,90,90A90.1021,90.1021,0,0,0,256,146Zm0,160a70,70,0,1,1,70-70A70.0794,70.0794,0,0,1,256,306Z" transform="translate(-46 0)"/><path d="M303.071,208.928a10.0033,10.0033,0,0,0-14.143,0L246,251.857l-12.929-12.928a10.0006,10.0006,0,0,0-14.143,14.143l20,20a10.0021,10.0021,0,0,0,14.143-.001l50-50A10.0015,10.0015,0,0,0,303.071,208.928Z" transform="translate(-46 0)"/></svg>