<svg xmlns="http://www.w3.org/2000/svg" width="180.6222mm" height="137.311mm" viewBox="0 0 512 389.228"><title>pe-supplier</title><polygon points="24.47 221.48 57.434 221.48 57.434 270.858 256 268.323 258.253 217.576 288.181 220.612 305.096 225.817 303.361 332.082 287.747 349.228 264.759 345.528 249.145 322.106 228.325 322.106 209.241 334.251 207.94 347.263 109.712 349.228 99.072 329.228 80.94 319.938 56.133 329.228 49.193 346.829 26.205 349.228 11.892 331.648 15.361 234.492 24.47 221.48" fill="#e98f3a" stroke="#000" stroke-miterlimit="10"/><path d="M501.14,375.675H315.713V103.322a10,10,0,0,0-20,0V273.044a34.7332,34.7332,0,0,0-14.94-3.363H264.118c-5.751-41.857-18.468-80.106-37.197-110.873a10,10,0,0,0-17.083,10.399c18.506,30.4,30.687,68.935,35.477,111.222.01.126.009.252.023.378.942,8.313,1.591,16.773,1.949,25.288l-33.32-33.32,6.278-6.278a10,10,0,1,0-14.142-14.142l-26.698,26.698a10,10,0,1,0,14.142,14.142l6.278-6.278,33.534,33.534H129.713V193.607A36.8988,36.8988,0,0,0,92.856,156.75H68.098V113.322h62.146a68.3692,68.3692,0,0,1,26.767,5.592,10,10,0,0,0,7.8-18.416,88.27,88.27,0,0,0-34.567-7.176H58.098a10,10,0,0,0-10,10v166.36H34.939A34.9785,34.9785,0,0,0,0,304.621v81.054a34.9785,34.9785,0,0,0,34.939,34.939h7.267a40.0054,40.0054,0,0,0,77.468,0h76.363a40.0054,40.0054,0,0,0,77.468,0h7.266a34.9988,34.9988,0,0,0,33.475-24.939H501.14a10,10,0,0,0,0-20ZM92.856,176.75a16.8752,16.8752,0,0,1,16.856,16.857V320.451H68.098V176.75ZM80.94,430.614a20,20,0,1,1,20-20v.01A20.0225,20.0225,0,0,1,80.94,430.614Zm153.833,0a20,20,0,1,1,19.999-20l.001.01A20.0238,20.0238,0,0,1,234.773,430.614Zm45.999-30h-7.266c-.019-.073-.042-.144-.062-.217a40.0058,40.0058,0,0,0-25.535-27.504,40.9547,40.9547,0,0,0-5.842-1.575,38.9912,38.9912,0,0,0-7.295-.704,39.99,39.99,0,0,0-21.132,6.052,40.6183,40.6183,0,0,0-12.653,12.572,32.9486,32.9486,0,0,0-3.415,7.035c-.126.365-1.232,4.341-1.534,4.341H119.675c-.019-.073-.042-.144-.062-.217a40.255,40.255,0,0,0-16.633-23.26,41.31,41.31,0,0,0-34.529-4.5661,39.2479,39.2479,0,0,0-24.441,22.766c-.171.405-1.718,5.277-1.804,5.277H34.94A14.9557,14.9557,0,0,1,20.001,385.675V304.621A14.9558,14.9558,0,0,1,34.94,289.682H48.098v50.77H257.5a10.0012,10.0012,0,0,0,9.997-9.7621c.079-3.311.117-6.303.117-9.145q0-4.467-.111-8.9339-.261-11.48-1.198-22.9281h14.468a14.9566,14.9566,0,0,1,14.94,14.939V385.676A14.956,14.956,0,0,1,280.772,400.614Z" transform="translate(0 -61.386)" fill-rule="evenodd"/><path d="M502,217.388H346.857a10,10,0,0,0-10,10V342.244a10,10,0,0,0,10,10H502a10,10,0,0,0,10-10V227.388A10,10,0,0,0,502,217.388ZM492,332.244H356.857V237.388h57.571v15.714a10,10,0,0,0,20,0V237.388H492Z" transform="translate(0 -61.386)" fill-rule="evenodd"/><path d="M502,61.386H346.857a10,10,0,0,0-10,10V186.242a10,10,0,0,0,10,10H502a10,10,0,0,0,10-10V71.386A10,10,0,0,0,502,61.386ZM492,176.242H356.857V81.386h57.571V97.1a10,10,0,1,0,20,0V81.386H492Z" transform="translate(0 -61.386)" fill-rule="evenodd"/><path d="M193.836,142.424a10.0005,10.0005,0,1,0-10-10.001A10.0206,10.0206,0,0,0,193.836,142.424Z" transform="translate(0 -61.386)" fill-rule="evenodd"/></svg>