<svg xmlns="http://www.w3.org/2000/svg" width="148.8892mm" height="180.6222mm" viewBox="0 0 422.048 512"><title>pe-talent</title><polygon points="168.024 389.89 168.024 270.89 139.872 265.89 134.017 247.89 134.017 149.89 150.024 107.89 187.024 86.89 231.024 86.89 264.024 105.89 288.032 142.89 288.032 246.89 282.175 268.89 261.024 270.89 252.024 287.89 252.024 389.89 168.024 389.89" fill="#ef7d25" stroke="#000" stroke-miterlimit="10"/><path d="M457.024,444.907H333.008V392.035a10,10,0,0,0-10-10H307.885V283.487c22.144-2.947,39.267-21.522,39.267-43.939V164.286c0-38.051-24.753-70.579-59.411-83.147a47.7955,47.7955,0,1,0-67.007,1.359c-32.8,13.442-55.887,45.04-55.887,81.789v75.262c0,22.858,17.8,41.729,40.576,44.102v98.385H188.991a10,10,0,0,0-10,10v27.105H54.976a10,10,0,0,0-10,10V502a10,10,0,0,0,10,10H457.024a10,10,0,0,0,10-10V454.907A10,10,0,0,0,457.024,444.907ZM178.993,492H64.976V439.141H178.993ZM253.546,20a27.794,27.794,0,1,1-27.795,27.794A27.8263,27.8263,0,0,1,253.546,20ZM184.848,239.548V164.286c0-37.88,31.919-68.698,71.152-68.698s71.151,30.818,71.151,68.698v75.262c0,11.396-8.214,20.985-19.267,23.631V166.904a10,10,0,0,0-20,0V382.035h-21.23V268.329a10,10,0,1,0-20,0V382.035h-21.23V166.904a10,10,0,0,0-20,0v96.552C193.716,261.279,184.848,251.389,184.848,239.548Zm128.161,215.36V492H198.993V402.036H313.009ZM447.024,492H333.008V464.907H447.024Z" transform="translate(-44.976 0)"/></svg>