<svg xmlns="http://www.w3.org/2000/svg" width="21.166mm" height="23.2817mm" viewBox="0 0 59.9982 65.9953"><title>profile-topic-preferences</title><polygon points="5.494 28.663 5.494 62.277 7.012 65.169 37.012 65.169 39.325 62.133 38.458 56.422 36.217 58.229 33.759 57 5.494 28.663" fill="#e98f3a"/><path d="M47.1031,59.752a4.3538,4.3538,0,0,1-1.9819,1.3487l.0668,5.0167a1.5306,1.5306,0,0,1-1.5288,1.5287H14.7159a1.5314,1.5314,0,0,1-1.5287-1.5329l-.1333-32.67a4.3642,4.3642,0,0,1-.995-.9855,4.4646,4.4646,0,0,1-.8023-.8829c-.0694-.0483-.1463-.0889-.2113-.1415l.1422,34.6845a3.5294,3.5294,0,0,0,3.5284,3.5284H43.6592a3.5344,3.5344,0,0,0,3.5285-3.5426Z" transform="translate(-7.0121 -3.6505)"/><path d="M7.3053,3.9438a.9989.9989,0,0,0,0,1.414l3.707,3.707v23.283l29.511,29.27a3.53,3.53,0,0,0,4.99,0l20.466-20.466a3.5344,3.5344,0,0,0-.01-5L36.6983,7.6508H12.4263l-3.707-3.707A.9989.9989,0,0,0,7.3053,3.9438Zm28.581,5.707,28.679,27.925a1.5306,1.5306,0,0,1,0,2.162l-20.466,20.466a1.5315,1.5315,0,0,1-2.165-.003l-28.922-28.687V11.0648l4.833,4.833a5.0149,5.0149,0,1,0,1.414-1.414l-4.833-4.833Zm-13.874,6a3,3,0,1,1-3,3,2.965,2.965,0,0,1,.301-1.285l1.992,1.992a1,1,0,1,0,1.414-1.414l-1.992-1.992A2.9509,2.9509,0,0,1,22.0123,15.6508Z" transform="translate(-7.0121 -3.6505)"/><line x1="25.4096" y1="17.223" x2="44.7831" y2="36.5964" fill="none" stroke="#231f20" stroke-linecap="round" stroke-miterlimit="10" stroke-width="2"/><line x1="17.1213" y1="24.9647" x2="26.1921" y2="34.0356" fill="none" stroke="#231f20" stroke-linecap="round" stroke-miterlimit="10" stroke-width="2"/></svg>