<svg xmlns="http://www.w3.org/2000/svg" width="161.5722mm" height="152.0472mm" viewBox="0 0 458 431"><title>en-cvc</title><polygon points="66.084 344.857 38.167 340.145 25.791 332.387 8.831 351.979 8.831 412.361 15.267 424.072 114.5 424.072 129.843 410.41 129.843 355.759 110.976 336.241 99.233 336.892 66.084 344.857" fill="#ef7d25"/><polygon points="388.047 347.373 360.129 342.66 347.753 334.903 330.794 354.495 330.794 414.877 337.229 426.588 436.463 426.588 451.806 412.925 451.806 358.275 432.939 338.757 421.196 339.407 388.047 347.373" fill="#ef7d25"/><polygon points="226.305 110.323 198.388 105.61 186.012 97.853 169.052 117.445 169.052 177.827 175.488 189.538 274.721 189.538 290.064 175.875 290.064 121.225 271.197 101.707 259.454 102.357 226.305 110.323" fill="#ef7d25"/><path d="M241,18.559c-25.2949,0-45.8,19.2963-45.8,43.1s20.5051,43.1,45.8,43.1c25.2845-.0233,45.7752-19.3061,45.8-43.1C286.8,37.8553,266.295,18.559,241,18.559Zm0,71.8334c-16.863,0-30.5333-12.8645-30.5333-28.7334S224.137,32.9257,241,32.9257,271.5333,45.79,271.5333,61.659,257.863,90.3924,241,90.3924Z" transform="translate(-12 -18.559)"/><path d="M271.5333,111.9424h-1.8014l-1.6107.7542a64.2733,64.2733,0,0,1-54.2424,0l-1.6106-.7542h-1.8015c-21.068.0233-38.1419,16.0906-38.1667,35.9166v43.1c0,11.9019,10.2525,21.55,22.9,21.55h91.6c12.6475,0,22.9-9.6481,22.9-21.55v-43.1C309.6752,128.033,292.6013,111.9657,271.5333,111.9424Zm22.9,79.0166a7.419,7.419,0,0,1-7.6333,7.1834H195.2a7.419,7.419,0,0,1-7.6333-7.1834v-43.1c.0019-11.3065,9.2888-20.69,21.2741-21.4925a80.746,80.746,0,0,0,64.3184,0c11.9844.8027,21.2722,10.186,21.2741,21.4925Z" transform="translate(-12 -18.559)"/><path d="M401.3,255.609c-25.295,0-45.8,19.2963-45.8,43.1s20.505,43.1,45.8,43.1,45.8-19.2962,45.8-43.1C447.0752,274.9152,426.5845,255.6324,401.3,255.609Zm0,71.8334c-16.863,0-30.5333-12.8645-30.5333-28.7334s13.67-28.7333,30.5333-28.7333,30.5333,12.8645,30.5333,28.7333S418.163,327.4424,401.3,327.4424Z" transform="translate(-12 -18.559)"/><path d="M431.8333,348.9924h-1.8014l-1.6107.7183a64.2806,64.2806,0,0,1-54.2424,0l-1.6106-.7183h-1.8015c-21.068.0233-38.1419,16.0907-38.1667,35.9166v43.1c0,11.9019,10.2525,21.55,22.9,21.55h91.6c12.6475,0,22.9-9.6481,22.9-21.55v-43.1C469.9752,365.0831,452.9013,349.0157,431.8333,348.9924Zm22.9,79.0166a7.419,7.419,0,0,1-7.6333,7.1834H355.5a7.419,7.419,0,0,1-7.6333-7.1834v-43.1c.0019-11.3065,9.2888-20.69,21.2741-21.4925a80.7451,80.7451,0,0,0,64.3184,0c11.9853.8028,21.2722,10.186,21.2741,21.4925Z" transform="translate(-12 -18.559)"/><path d="M80.7,255.609c-25.295,0-45.8,19.2963-45.8,43.1s20.505,43.1,45.8,43.1,45.8-19.2962,45.8-43.1C126.4752,274.9152,105.9845,255.6324,80.7,255.609Zm0,71.8334c-16.863,0-30.5333-12.8645-30.5333-28.7334S63.837,269.9757,80.7,269.9757s30.5333,12.8645,30.5333,28.7333S97.563,327.4424,80.7,327.4424Z" transform="translate(-12 -18.559)"/><path d="M111.2333,348.9924h-1.8014l-1.6107.7183a64.2806,64.2806,0,0,1-54.2424,0l-1.6107-.7183H50.1667C29.0987,349.0157,12.0248,365.0831,12,384.909v43.1c0,11.9019,10.2525,21.55,22.9,21.55h91.6c12.6475,0,22.9-9.6481,22.9-21.55v-43.1C149.3752,365.0831,132.3013,349.0157,111.2333,348.9924Zm22.9,79.0166a7.419,7.419,0,0,1-7.6333,7.1834H34.9a7.419,7.419,0,0,1-7.6333-7.1834v-43.1c.0019-11.3065,9.2888-20.69,21.2741-21.4925a80.7451,80.7451,0,0,0,64.3184,0c11.9853.8028,21.2722,10.186,21.2741,21.4925Z" transform="translate(-12 -18.559)"/><path d="M316.7341,383.361l-.0114-.0251a7.8169,7.8169,0,0,0-10.014-3.7928h0a179.2388,179.2388,0,0,1-108.8742,7.054l7.1448-1.9754a7.13,7.13,0,0,0,5.183-8.9145,7.717,7.717,0,0,0-9.4729-4.8775l-30.5334,8.426c-.1145,0-.1984.1221-.3053.158a7.7177,7.7177,0,0,0-1.9694,1.0273,6.7365,6.7365,0,0,0-.7633.4525,6.9874,6.9874,0,0,0-1.87,2.4424,6.8228,6.8228,0,0,0-.58,2.9667,21.0872,21.0872,0,0,0,.7634,2.8733c.0458.1006,0,.2155.0839.3161l15.2667,27.4906a7.878,7.878,0,0,0,10.305,3.0457,6.9849,6.9849,0,0,0,3.2365-9.6975L188.11,399.1536a194.4913,194.4913,0,0,0,124.5684-6.3789A7.0352,7.0352,0,0,0,316.7341,383.361Z" transform="translate(-12 -18.559)"/><path d="M444.8634,207.43a7.9757,7.9757,0,0,0-10.7935,0l-10.8012,10.1644c-6.32-62.917-48.7684-117.5157-110.5764-142.23a7.8178,7.8178,0,0,0-10.015,3.7927,7.0332,7.0332,0,0,0,4.03,9.4246c55.4467,22.1758,93.9893,70.6382,100.9661,126.951l-8.61-8.1028a7.9748,7.9748,0,0,0-10.7935.176,6.8835,6.8835,0,0,0,0,9.9813l22.9,21.55a7.9753,7.9753,0,0,0,10.7954.0125l.0134-.0125,22.9-21.55A6.8871,6.8871,0,0,0,444.8634,207.43Z" transform="translate(-12 -18.559)"/><path d="M179.712,80.76a6.3159,6.3159,0,0,0-.1985-1.2427c0-.0646-.0839-.1077-.1145-.18s0-.1221,0-.18a6.8829,6.8829,0,0,0-.7175-.9912,4.44,4.44,0,0,0-2.3587-2.1407,6.7206,6.7206,0,0,0-.8549-.5818L144.9345,62.32a7.8075,7.8075,0,0,0-9.9605,3.9167,7.0065,7.0065,0,0,0,3.6249,9.1426l15.8086,6.8026C94.8932,112.1552,57.7571,170.5368,57.8,234.059a7.6474,7.6474,0,0,0,15.2667,0c-.0382-55.9339,31.393-107.7069,82.6155-136.081l-5.5189,10.854a7.0013,7.0013,0,0,0,3.5648,9.5754,7.9062,7.9062,0,0,0,3.3053.7183,7.685,7.685,0,0,0,6.87-4.0729L179.17,85.0767a.3121.3121,0,0,1,.0611-.2227,6.5825,6.5825,0,0,0,.4122-1.5228,7.0768,7.0768,0,0,0,.29-1.1853A6.7773,6.7773,0,0,0,179.712,80.76Z" transform="translate(-12 -18.559)"/></svg>