<svg xmlns="http://www.w3.org/2000/svg" width="180.6149mm" height="179.5627mm" viewBox="0 0 511.9793 508.9966"><title>en-future-procurement-leaders</title><circle cx="266.9871" cy="243.8156" r="10.04"/><path d="M398.479,118.032a42.7115,42.7115,0,1,0,0,60.433A42.4483,42.4483,0,0,0,398.479,118.032Zm-14.197,46.234a22.654,22.654,0,1,1-.001-32.037A22.68,22.68,0,0,1,384.282,164.266Z" transform="translate(-0.0179 -1.4924)"/><path d="M125.409,411.45a10.0394,10.0394,0,0,0-13.462,4.512L99.989,439.977a33.1326,33.1326,0,0,1-27.296,18.219l-13.908.952a5.95,5.95,0,0,1-6.341-6.342l.952-13.9071A33.1379,33.1379,0,0,1,71.615,411.603l24.014-11.958a10.04,10.04,0,1,0-8.95-17.974L62.665,393.629a53.2887,53.2887,0,0,0-29.302,43.898l-.952,13.907a26.028,26.028,0,0,0,25.965,27.807c.591,0,1.186-.02,1.78-.061l13.908-.952a53.2825,53.2825,0,0,0,43.898-29.302l11.958-24.014A10.039,10.039,0,0,0,125.409,411.45Z" transform="translate(-0.0179 -1.4924)"/><polygon points="244.982 354.397 360.982 266.397 360.982 320.397 351.857 369.397 320.54 435.397 258.647 488.894 244.982 354.397" fill="#e98f3a" stroke="#000" stroke-miterlimit="10"/><polygon points="149.176 261.397 20.102 253.856 56.982 203.73 130.957 157.122 195.255 146.746 238.982 146.746 149.176 261.397" fill="#e98f3a" stroke="#000" stroke-miterlimit="10"/><path d="M505.07,8.18a23.2457,23.2457,0,0,0-17.793-6.639l-9.348.596A302.9154,302.9154,0,0,0,262.714,113.141L240.71,140.23l-57.583-1.691c-.098-.003-.197-.004-.294-.004A169.8565,169.8565,0,0,0,61.937,188.611L2.959,247.59a10.0391,10.0391,0,0,0,6.584,17.125l124.844,6.414-5.09,6.267a10.039,10.039,0,0,0-1.026,11.127q2.934,5.394,6.144,10.617l-29.606,35.147a10.0448,10.0448,0,0,0-1.397,10.763,130.7246,130.7246,0,0,0,62.763,62.764,10.04,10.04,0,0,0,10.62-1.278c6.378-5.174,13.731-11.311,20.843-17.245,5.069-4.23,10.255-8.557,15.102-12.547q4.3395,2.6115,8.795,5.046a10.0371,10.0371,0,0,0,10.952-.887l6.843-5.31,6.442,125.37a10.0374,10.0374,0,0,0,17.124,6.584l58.979-58.979a169.8507,169.8507,0,0,0,50.076-120.896V272.677l23.267-18.055A301.7127,301.7127,0,0,0,511.73,30.76l.239-4.886A23.2615,23.2615,0,0,0,505.07,8.18ZM33.123,245.822,76.135,202.81a149.9135,149.9135,0,0,1,106.553-44.196l42.085,1.236-74.71,91.98ZM184.774,373.874c-5.241,4.372-10.614,8.856-15.6,12.957a110.2927,110.2927,0,0,1-44.729-44.688l21.676-25.733a232.7578,232.7578,0,0,0,21.478,24.925l.018.017.006.0069.009.008a232.7652,232.7652,0,0,0,27.641,23.761C191.811,368.002,188.264,370.962,184.774,373.874Zm167.101-46.202A149.9043,149.9043,0,0,1,307.679,434.37l-43.012,43.012L258.665,360.59l93.209-72.33v39.412ZM491.678,29.779a281.6549,281.6549,0,0,1-108.767,208.98L225.451,360.948a212.59,212.59,0,0,1-36.368-26.846l53.086-53.086a10.04,10.04,0,0,0-14.199-14.199l-53.036,53.036a212.56,212.56,0,0,1-25.74-35.104L278.3,125.8A282.7717,282.7717,0,0,1,479.207,22.177l9.348-.596a3.1651,3.1651,0,0,1,3.363,3.313Z" transform="translate(-0.0179 -1.4924)"/></svg>