<svg xmlns="http://www.w3.org/2000/svg" width="172.6494mm" height="150.7419mm" viewBox="0 0 489.4 427.3"><title>en-marketplace</title><polygon points="91 7.509 14 132.509 36.619 190.509 94 190.509 124 148.2 153 186.1 191 202.509 243 160.509 272.2 190.509 321 196.509 360.779 156.279 408.591 201.923 471.945 171.512 472 132.509 404 7.509 91 7.509" fill="#e98f3a" stroke="#000" stroke-miterlimit="10"/><path d="M347.7,263.75H281.2a33.0326,33.0326,0,0,0-33,33v51a33.0326,33.0326,0,0,0,33,33h66.5a33.0326,33.0326,0,0,0,33-33v-51A33.0326,33.0326,0,0,0,347.7,263.75Zm9,84a9.0264,9.0264,0,0,1-9,9H281.2a9.0264,9.0264,0,0,1-9-9v-51a9.0264,9.0264,0,0,1,9-9h66.5a9.0264,9.0264,0,0,1,9,9Z" transform="translate(0 -31.05)"/><path d="M489.4,171.05a11.139,11.139,0,0,0-1.6-5.9L415,37.15a12.0641,12.0641,0,0,0-10.4-6.1H84.7a11.8591,11.8591,0,0,0-10.4,6.1l-72.7,128a12.1311,12.1311,0,0,0-1.6,5.9,70.1977,70.1977,0,0,0,42,64.2v211.1a12.0353,12.0353,0,0,0,12,12H435.3a12.0353,12.0353,0,0,0,12-12V236.75a5.2829,5.2829,0,0,0-.1-1.3A70.3936,70.3936,0,0,0,489.4,171.05ZM91.7,55.15H397.6l56.9,100.1H34.9Zm256.6,124a46.1205,46.1205,0,0,1-90.8,0Zm-116.3,0a46.18,46.18,0,0,1-90.9,0Zm-207.2,0h90.9a46.18,46.18,0,0,1-90.9,0Zm176.8,255.2h-69V304.85a17.0924,17.0924,0,0,1,17.1-17.1h34.9a17.0924,17.0924,0,0,1,17.1,17.1v129.5Zm221.7,0H225.6V304.85a41.1628,41.1628,0,0,0-41.1-41.1H149.6a41.1628,41.1628,0,0,0-41.1,41.1v129.6H66V241.15c1.4.1,2.8.1,4.2.1a70.11,70.11,0,0,0,58.2-31,70.1329,70.1329,0,0,0,116.4,0,69.9453,69.9453,0,0,0,116.2,0,70.11,70.11,0,0,0,58.2,31c1.4,0,2.7-.1,4.1-.1v193.2Zm-4.1-217.1a46.0964,46.0964,0,0,1-45.4-38h90.9A46.3777,46.3777,0,0,1,419.2,217.25Z" transform="translate(0 -31.05)"/></svg>