<svg xmlns="http://www.w3.org/2000/svg" width="102.0233mm" height="168.9908mm" viewBox="0 0 289.2 479.0289"><title>en-plq-magazine</title><path d="M107.8482,405.87H375.9507v46.7916a15.18,15.18,0,0,1-15.1247,15.3048H122.973a15.18,15.18,0,0,1-15.1248-15.3048Z" transform="translate(-98.6 -2)" fill="#a7a9ac"/><path d="M377.2031,72.6H109.1006V29.3c0-11.2,8.7666-20.3,19.5562-20.3h228.99c10.79,0,19.5562,9.1,19.5562,20.3V72.6Z" transform="translate(-98.6 -2)" fill="#e98f3a"/><path d="M226.6,447.69h40.3a8.8738,8.8738,0,1,0,0-17.7418H226.6a8.8738,8.8738,0,1,0,0,17.7418Z" transform="translate(-98.6 -2)"/><path d="M387.8,428.9733V52.301A50.2084,50.2084,0,0,0,337.7054,2H149.2726A50.4973,50.4973,0,0,0,98.6963,52.301V369.119a8.7672,8.7672,0,1,0,17.5331,0V84.47H370.46V394.66H111.6053l-2.2157-.5849a8.444,8.444,0,0,0-7.4178,1.6572A8.7643,8.7643,0,0,0,98.6,402.653v26.2228c0,28.27,23.2169,52.1531,50.5763,52.1531H337.6091C364.7757,481.0289,387.8,457.2432,387.8,428.9733Zm-17.5331,0c0,18.3267-15.221,34.4113-32.6578,34.4113H149.2726c-17.6294,0-33.14-16.0846-33.14-34.4113V412.4012h254.23v16.5721ZM116.1331,66.7284V52.301c0-17.7418,15.2211-32.6567,33.14-32.6567H337.6091A32.672,32.672,0,0,1,370.2669,52.301V66.7284Z" transform="translate(-98.6 -2)"/><line x1="55.7304" y1="303.9928" x2="230.9593" y2="303.9928" fill="none" stroke="#000" stroke-linecap="round" stroke-miterlimit="10" stroke-width="14"/><line x1="55.7304" y1="259.0048" x2="230.9593" y2="259.0048" fill="none" stroke="#000" stroke-linecap="round" stroke-miterlimit="10" stroke-width="14"/><line x1="55.7304" y1="213.7" x2="230.9593" y2="213.7" fill="none" stroke="#000" stroke-linecap="round" stroke-miterlimit="10" stroke-width="14"/><line x1="55.7304" y1="168.7036" x2="230.9593" y2="168.7036" fill="none" stroke="#000" stroke-linecap="round" stroke-miterlimit="10" stroke-width="14"/></svg>