<svg xmlns="http://www.w3.org/2000/svg" width="116.629mm" height="83.7296mm" viewBox="0 0 330.6019 237.3437"><title>en-video</title><path d="M175.2223,284.95h0c-37.5958,0-78.526-1.1916-121.6456-3.5233-25.4742-1.4018-45.2348-21.1082-48.0476-47.9316a642.1666,642.1666,0,0,1,0-134.454c2.8068-26.6,22.5408-46.3068,47.99-47.9128a1839.23,1839.23,0,0,1,227.5447,0c25.7478,1.5674,45.0382,20.8088,48.016,47.887,4.6919,42.8726,4.6989,88.1027.006,134.461-2.7111,26.8046-21.9827,46.0708-47.9519,47.9385C248.4527,283.7584,212.8181,284.95,175.2223,284.95ZM166.4282,60.3411c-37.4752,0-75.1984,1.1847-112.1213,3.51C34.8584,65.0749,20.33,79.761,18.1526,100.3844a629.546,629.546,0,0,0,0,131.7783c2.1775,20.79,16.687,35.4691,36.1039,36.54,42.8913,2.3188,83.5923,3.5045,120.9539,3.5045,37.2974,0,72.6268-1.1788,105.01-3.4976,19.5947-1.4147,34.1547-16.0879,36.2185-36.5209,4.61-45.4661,4.61-89.798.006-131.7784-2.2665-20.6878-16.8007-35.38-36.1543-36.5586C242.2234,61.52,203.9094,60.3411,166.4282,60.3411ZM134.959,121.1426V208.589l83.6882-43.4268Z" transform="translate(-2.0005 -47.6063)"/><polygon points="132.576 73.177 132.576 161.385 217.282 117.58 132.576 73.177" fill="#ef7d25"/></svg>