<svg xmlns="http://www.w3.org/2000/svg" width="169.3307mm" height="122.2474mm" viewBox="0 0 479.9926 346.528"><title>en-virtual-roundtables</title><polygon points="190.205 152 289.964 152 286.06 109.917 270.446 93.869 244.855 89.098 215.999 89.098 193.241 106.447 190.205 152" fill="#ef7d25"/><path d="M269.678,149.3a39.7124,39.7124,0,0,0,10.32-26.568v-16a40,40,0,0,0-80,0v16a39.7124,39.7124,0,0,0,10.32,26.568,39.9445,39.9445,0,0,0-26.32,37.432v32h16v-32a24,24,0,0,1,24-24h8v56h16v-56h8a24,24,0,0,1,24,24v32h16v-32A39.9445,39.9445,0,0,0,269.678,149.3Zm-5.68-26.568a24,24,0,1,1-48,0v-16a24,24,0,0,1,48,0Z" transform="translate(0 -66.732)"/><polygon points="6.301 122.929 21.916 240 56.614 249.146 128.614 246.977 122.542 230.929 105.193 216.182 53.145 213.579 47.506 197.531 45.337 147.218 34.928 128 17.062 116.857 6.301 122.929" fill="#ef7d25"/><polygon points="356.325 247.411 444.373 247.411 459.12 233.531 471.265 121.194 442.205 123.796 436.133 145.049 430.928 212.278 413.795 216.616 372.807 217.483 359.998 227.893 356.325 247.411" fill="#ef7d25"/><path d="M214.654,398.292l-14.656-21.96v-61.6a40.048,40.048,0,0,0-40-40h-16v16h16a24,24,0,0,1,24,24v64a8.0523,8.0523,0,0,0,1.344,4.44l7.712,11.56H167.998v-80h-16v88a8,8,0,0,0,8,8h48a8,8,0,0,0,6.656-12.44Z" transform="translate(0 -66.732)"/><path d="M135.998,122.732v-16a40,40,0,1,0-80,0v16A39.84,39.84,0,0,0,67.942,151.18a48.0647,48.0647,0,0,0-27.328,36.264,39.6352,39.6352,0,0,0-24.616-8.712h-8a7.9981,7.9981,0,0,0-7.936,8.992L13.998,299.228a26.8328,26.8328,0,0,0,23.016,23.2l-28.6,85.776,15.168,5.056,30.176-90.528h66.24v88h16v-96a40.048,40.048,0,0,0-40-40h-32a8,8,0,0,1-8-8v-72a32,32,0,0,1,32-32v88h16V167.18a31.8957,31.8957,0,0,1,16,27.552v72h16v-72a47.8956,47.8956,0,0,0-18.96-38.128A39.9129,39.9129,0,0,0,135.998,122.732Zm-72,168h32a24,24,0,0,1,22.528,16H40.622a10.8558,10.8558,0,0,1-10.752-9.488L17.062,194.732a24,24,0,0,1,22.936,24v48A24,24,0,0,0,63.998,290.732Zm56-168a24,24,0,0,1-48,0v-16a24,24,0,0,1,48,0Z" transform="translate(0 -66.732)"/><polygon points="151.998 168 151.998 184 231.998 184 231.998 344 247.998 344 247.998 184 327.998 184 327.998 168 151.998 168"/><path d="M295.998,378.732v-64a24,24,0,0,1,24-24h16v-16h-16a40.048,40.048,0,0,0-40,40v61.6l-14.656,21.984a8,8,0,0,0,6.656,12.416h48a8,8,0,0,0,8-8v-88h-16v80H286.942l7.712-11.56A8.0523,8.0523,0,0,0,295.998,378.732Z" transform="translate(0 -66.732)"/><path d="M465.998,299.196l13.936-111.504a8.0013,8.0013,0,0,0-7.936-8.96h-8a39.6352,39.6352,0,0,0-24.616,8.712,48.0647,48.0647,0,0,0-27.328-36.264,39.84,39.84,0,0,0,11.944-28.448v-16a40,40,0,0,0-80,0v16a39.9107,39.9107,0,0,0,18.96,33.872,47.8956,47.8956,0,0,0-18.96,38.128v72h16v-72a31.8957,31.8957,0,0,1,16-27.552v83.552h16v-88a32,32,0,0,1,32,32v72a8,8,0,0,1-8,8h-32a40.048,40.048,0,0,0-40,40v96h16v-88h66.24l30.176,90.528,15.2-5.056-28.632-85.808A26.8328,26.8328,0,0,0,465.998,299.196Zm-58-176.464a24,24,0,1,1-48,0v-16a24,24,0,0,1,48,0Zm31.376,184H361.47a24,24,0,0,1,22.528-16h32a24,24,0,0,0,24-24v-48a24,24,0,0,1,22.936-24l-12.8,102.488A10.8564,10.8564,0,0,1,439.374,306.732Z" transform="translate(0 -66.732)"/></svg>