<svg xmlns="http://www.w3.org/2000/svg" width="172.2614mm" height="159.8084mm" viewBox="0 0 488.3 453.0001"><title>en-webinars</title><path d="M418.9,382.55H18.2a9.1332,9.1332,0,0,1-9.1-9.1v-52.9h419v52.9A9.1548,9.1548,0,0,1,418.9,382.55Z" transform="translate(0 -17.65)" fill="#a7a9ac"/><path d="M450.3,26.75H275.4a28.9366,28.9366,0,0,0-28.8,28.8v106.8a28.9366,28.9366,0,0,0,28.8,28.8H298v51l53.2-51h99.1a28.9366,28.9366,0,0,0,28.8-28.8V55.55A28.8074,28.8074,0,0,0,450.3,26.75Z" transform="translate(0 -17.65)" fill="#e98f3a"/><path d="M428.1,218.75a9.1332,9.1332,0,0,0-9.1,9.1v87.3H18.1V116.45a19.7385,19.7385,0,0,1,19.7-19.7H211.3a9.1,9.1,0,0,0,0-18.2H37.8A37.8982,37.8982,0,0,0,0,116.35v239.2a37.8982,37.8982,0,0,0,37.8,37.8H209.5v59.1H129a9.1,9.1,0,0,0,0,18.2H308.2a9.1,9.1,0,0,0,0-18.2H227.7v-59.1H399.4a37.8982,37.8982,0,0,0,37.8-37.8V227.75A9.1124,9.1124,0,0,0,428.1,218.75Zm-28.8,156.6H37.8a19.7385,19.7385,0,0,1-19.7-19.7v-22.4H419v22.4A19.6745,19.6745,0,0,1,399.3,375.35Z" transform="translate(0 -17.65)"/><path d="M450.3,17.65H275.4a37.9405,37.9405,0,0,0-37.9,37.9v106.8a37.9405,37.9405,0,0,0,37.9,37.9h13.5v41.9a9.0759,9.0759,0,0,0,5.5,8.3,8.8883,8.8883,0,0,0,3.6.7,9.2833,9.2833,0,0,0,6.3-2.5l50.6-48.5h95.5a37.9405,37.9405,0,0,0,37.9-37.9V55.55A38.0907,38.0907,0,0,0,450.3,17.65Zm19.8,144.6a19.6745,19.6745,0,0,1-19.7,19.7H351.3a9.2833,9.2833,0,0,0-6.3,2.5l-37.9,36.3v-29.8a9.2211,9.2211,0,0,0-9.1-9.1H275.4a19.6745,19.6745,0,0,1-19.7-19.7V55.55a19.6745,19.6745,0,0,1,19.7-19.7H450.3A19.6745,19.6745,0,0,1,470,55.55v106.7Z" transform="translate(0 -17.65)"/><path d="M362.9,103.35a9.4385,9.4385,0,0,0-6.4,2.6,8.9352,8.9352,0,0,0,0,12.8,8.9969,8.9969,0,0,0,6.4,2.6,9.4385,9.4385,0,0,0,6.4-2.6,9,9,0,0,0-6.4-15.4Z" transform="translate(0 -17.65)"/><path d="M396.6,103.35a9.4385,9.4385,0,0,0-6.4,2.6,8.9352,8.9352,0,0,0,0,12.8,8.9969,8.9969,0,0,0,6.4,2.6,9.4385,9.4385,0,0,0,6.4-2.6,8.9352,8.9352,0,0,0,0-12.8A8.9969,8.9969,0,0,0,396.6,103.35Z" transform="translate(0 -17.65)"/><path d="M329.1,103.35a9.4385,9.4385,0,0,0-6.4,2.6,8.9352,8.9352,0,0,0,0,12.8,8.9969,8.9969,0,0,0,6.4,2.6,9.4385,9.4385,0,0,0,6.4-2.6,8.9352,8.9352,0,0,0,0-12.8A8.8294,8.8294,0,0,0,329.1,103.35Z" transform="translate(0 -17.65)"/></svg>