<svg xmlns="http://www.w3.org/2000/svg" width="180.6226mm" height="180.624mm" viewBox="0 0 512.001 512.0051"><title>en-whitepaper</title><polygon points="249.576 93.867 260.853 429.902 417.432 354.215 414.179 8.745 320.772 44.491 277.077 69.568 249.576 88.119 249.576 93.867" fill="#e98f3a"/><path d="M291.057,242.811a8.5439,8.5439,0,0,0,11.486,3.729c.503-.256,50.731-25.771,75.503-33.596a8.5387,8.5387,0,0,0-5.154-16.281c-26.095,8.252-75.9811,33.596-78.097,34.671A8.5383,8.5383,0,0,0,291.057,242.811Z" transform="translate(-0.002 0.0001)"/><path d="M298.677,145.071a8.5168,8.5168,0,0,0,3.866-.93c.503-.256,50.731-25.771,75.503-33.596a8.5387,8.5387,0,0,0-5.154-16.281c-26.095,8.252-75.9811,33.596-78.097,34.671a8.5305,8.5305,0,0,0,3.882,16.136Z" transform="translate(-0.002 0.0001)"/><path d="M503.469,128.004a8.5306,8.5306,0,0,0-8.533,8.533v332.8a25.6314,25.6314,0,0,1-25.6,25.6h-204.8V475.302c12.442-4.352,44.851-14.498,76.8-14.498,74.334,0,124.809,16.461,125.312,16.631a8.5328,8.5328,0,0,0,11.221-8.099V93.871a8.52,8.52,0,0,0-6.682-8.329s-6.69-1.493-18.125-3.593a8.5334,8.5334,0,0,0-3.089,16.785c4.361.802,8.013,1.51,10.829,2.074V457.996c-19.337-5.069-62.276-14.259-119.467-14.259-37.18,0-73.702,12.211-85.001,16.35-10.0441-4.437-40.405-16.35-77.133-16.35a575.043,575.043,0,0,0-128,14.618V100.475a561.6872,561.6872,0,0,1,128-15.138c31.113,0,57.796,9.685,68.267,14.063V435.204a8.5319,8.5319,0,0,0,12.928,7.313c.845-.503,85.393-51.004,160.435-76.015a8.5337,8.5337,0,0,0,5.837-8.098V8.537A8.5455,8.5455,0,0,0,415.131.542C346.856,26.15,277.771,69.141,277.079,69.568a8.5335,8.5335,0,0,0,9.045,14.473c.631-.401,60.732-37.794,123.477-63.027V352.295c-58.249,20.241-119.066,53.291-145.067,68.087V93.871a8.5412,8.5412,0,0,0-4.719-7.637c-1.468-.725-36.437-17.963-80.614-17.963-77.107,0-136.388,16.683-138.88,17.399a8.528,8.528,0,0,0-6.187,8.201V469.338a8.53,8.53,0,0,0,8.534,8.534,8.4088,8.4088,0,0,0,2.338-.333c.589-.162,59.597-16.734,134.195-16.734,31.198,0,57.856,9.711,68.267,14.071v20.062H42.668a25.6314,25.6314,0,0,1-25.6-25.6v-332.8a8.533,8.533,0,0,0-17.066,0v332.8a42.7155,42.7155,0,0,0,42.667,42.667H469.336a42.7155,42.7155,0,0,0,42.667-42.667v-332.8A8.5323,8.5323,0,0,0,503.469,128.004Z" transform="translate(-0.002 0.0001)"/><path d="M291.057,191.611a8.5439,8.5439,0,0,0,11.486,3.729c.503-.256,50.731-25.771,75.503-33.596a8.5387,8.5387,0,0,0-5.154-16.281c-26.095,8.252-75.9811,33.596-78.097,34.671A8.5383,8.5383,0,0,0,291.057,191.611Z" transform="translate(-0.002 0.0001)"/><path d="M291.057,294.011a8.5439,8.5439,0,0,0,11.486,3.729c.503-.256,50.731-25.771,75.503-33.596a8.5387,8.5387,0,0,0-5.154-16.281c-26.095,8.252-75.9811,33.596-78.097,34.671A8.5383,8.5383,0,0,0,291.057,294.011Z" transform="translate(-0.002 0.0001)"/><path d="M206.748,158.366c-52.693-12.365-112.572,3.388-115.089,4.062a8.5335,8.5335,0,0,0,2.202,16.776,8.6765,8.6765,0,0,0,2.219-.29c.572-.162,58.223-15.326,106.778-3.934a8.5317,8.5317,0,1,0,3.89-16.614Z" transform="translate(-0.002 0.0001)"/><path d="M206.748,209.566c-52.693-12.356-112.572,3.388-115.089,4.062a8.5335,8.5335,0,0,0,2.202,16.776,8.6765,8.6765,0,0,0,2.219-.29c.572-.162,58.223-15.326,106.778-3.934a8.5317,8.5317,0,1,0,3.89-16.614Z" transform="translate(-0.002 0.0001)"/><path d="M291.057,345.211a8.5439,8.5439,0,0,0,11.486,3.729c.503-.256,50.731-25.771,75.503-33.596a8.5387,8.5387,0,0,0-5.154-16.281c-26.095,8.252-75.9811,33.596-78.097,34.671A8.5383,8.5383,0,0,0,291.057,345.211Z" transform="translate(-0.002 0.0001)"/><path d="M206.748,260.766c-52.693-12.356-112.572,3.379-115.089,4.062a8.5387,8.5387,0,0,0,2.202,16.785,8.6477,8.6477,0,0,0,2.219-.299c.572-.162,58.223-15.326,106.778-3.934a8.5317,8.5317,0,1,0,3.89-16.614Z" transform="translate(-0.002 0.0001)"/><path d="M206.748,363.166c-52.693-12.365-112.572,3.388-115.089,4.062a8.5387,8.5387,0,0,0,2.202,16.785,8.6477,8.6477,0,0,0,2.219-.299c.572-.162,58.223-15.326,106.778-3.934a8.5317,8.5317,0,1,0,3.89-16.614Z" transform="translate(-0.002 0.0001)"/><path d="M206.748,311.966c-52.693-12.365-112.572,3.379-115.089,4.062a8.5387,8.5387,0,0,0,2.202,16.785,8.6477,8.6477,0,0,0,2.219-.299c.572-.162,58.223-15.326,106.778-3.934a8.5317,8.5317,0,1,0,3.89-16.614Z" transform="translate(-0.002 0.0001)"/></svg>