<svg xmlns="http://www.w3.org/2000/svg" width="162.0407mm" height="180.6222mm" viewBox="0 0 459.328 512"><title>en-woman-procurement-leaders</title><circle cx="188.874" cy="191.34" r="9.999"/><circle cx="265.724" cy="191.34" r="9.999"/><polygon points="287.001 442.046 255.725 420.23 271.531 499.589 439.328 496.697 447.05 443.348 439.328 400.408 374.76 371.781 327.05 364.263 287.001 442.046" fill="#ef7d25" stroke="#000" stroke-miterlimit="10"/><polygon points="135.803 356.167 56.688 368.663 20 406.914 12.447 461.564 20 501.902 74.125 501.902 188.874 501.902 214.127 420.23 168.592 445.95 135.803 356.167" fill="#ef7d25" stroke="#000" stroke-miterlimit="10"/><path d="M414.637,359.349c-18.115-4.614-36.63-8.466-55.104-11.487l-19.98-30.213a10,10,0,0,0-15.836-1.103L255.788,393.46l-67.695-72.352a10,10,0,0,0-15.258.774l-19.7,25.868c-13.691,2.224-27.405,4.902-40.968,8.016v-195.2C112.166,83.057,175.223,20,252.731,20S393.296,83.057,393.296,160.565V289.952a10,10,0,0,0,20,0V160.565C413.296,72.029,341.267,0,252.73,0,164.195,0,92.166,72.029,92.166,160.565V360.821a93.8829,93.8829,0,0,0-65.83,89.739v22.785A38.6993,38.6993,0,0,0,64.991,512H447.009a38.6993,38.6993,0,0,0,38.655-38.655V450.564A94.1293,94.1293,0,0,0,414.637,359.349Zm-84.569-19.783,14.078,21.288L308.817,431.02l-37.683-24.726Zm-148.494,3.849,58.889,62.94-38.486,24.48-31.783-72.477ZM213.195,492H64.991a18.6766,18.6766,0,0,1-18.655-18.655V450.56a73.8836,73.8836,0,0,1,55.497-71.714c16.703-4.269,33.754-7.876,50.792-10.751l35.719,81.453a10,10,0,0,0,14.525,4.422l18.567-11.81Zm20.272.001V492l10.624-64.249,11.825-7.521,12.386,8.127,14.3,63.644Zm232.197-18.656A18.676,18.676,0,0,1,447.009,492H303.1l-10.755-47.868,14.876,9.761a10,10,0,0,0,14.417-3.864l40.967-81.366c15.804,2.752,31.601,6.12,47.095,10.066a74.145,74.145,0,0,1,55.964,71.834Z" transform="translate(-26.336 0)"/><path d="M336.548,130.724H289.885a33.4714,33.4714,0,0,1-26.639-13.313,10,10,0,0,0-15.671-.41,38.1525,38.1525,0,0,1-29.35,13.723H174.127a32.026,32.026,0,0,0-31.99,31.99v51.514a111.7735,111.7735,0,1,0,223.547,0V159.86A29.1685,29.1685,0,0,0,336.548,130.724Zm9.137,83.504a91.773,91.773,0,1,1-183.546,0V162.714a12.004,12.004,0,0,1,11.99-11.99h44.098a58.0881,58.0881,0,0,0,36.746-13.044,53.5948,53.5948,0,0,0,34.914,13.044h46.664a9.1467,9.1467,0,0,1,9.134,9.136Z" transform="translate(-26.336 0)"/><path d="M283.667,247.665a10.0009,10.0009,0,0,0-14.144,0,19.521,19.521,0,0,1-28.233-.655,10,10,0,0,0-14.777,13.477,39.5238,39.5238,0,0,0,57.154,1.321A10.0015,10.0015,0,0,0,283.667,247.665Z" transform="translate(-26.336 0)"/><circle cx="376.964" cy="327.94" r="10"/></svg>