<svg xmlns="http://www.w3.org/2000/svg" width="163.4692mm" height="142.0967mm" viewBox="0 0 463.3773 402.7937"><title>ci-energy</title><path d="M422.384,270.04c-.042-.011-.085-.021-.127-.031a7.08,7.08,0,0,0-8.52,5.24C389.694,375.78,288.708,437.785,188.177,413.742A187.1621,187.1621,0,0,1,62.497,311.689l-14.16,2.96C94.118,415.948,213.349,460.955,314.649,415.175A201.276,201.276,0,0,0,427.497,278.649,7.08,7.08,0,0,0,422.384,270.04Z" transform="translate(0.0001 -30.2919)"/><path d="M94.944,283.22a7.0825,7.0825,0,0,0-1.647-3.372l-27.56-30.72-27.24-30.4a7.08,7.08,0,0,0-12.32,2.16l-12.96,39.24-12.88,39.2a7.08,7.08,0,0,0,8,9.12l40.4-8.48,40.56-8.48A7.0787,7.0787,0,0,0,94.944,283.22Zm-48.887,2.869-28.44,6,9.04-27.6,9.08-27.56,19.36,21.6,19.36,21.6Z" transform="translate(0.0001 -30.2919)"/><path d="M463.297,160.409a7.08,7.08,0,0,0-8.36-5.48l-40.4,8.48-40.36,8.28a7.08,7.08,0,0,0-4,11.64l27.56,30.72,27.24,30.4a7.08,7.08,0,0,0,12.32-2.16l12.84-39.24,12.84-39.24A7.0418,7.0418,0,0,0,463.297,160.409Zm-26.52,38.48-9.04,27.56-19.36-21.6-19.36-21.6,28.4-5.96,28.4-5.96Z" transform="translate(0.0001 -30.2919)"/><path d="M148.825,48.203A201.2785,201.2785,0,0,0,35.977,184.729a7.08,7.08,0,1,0,13.612,3.902c.059-.205.108-.413.148-.622C73.824,87.489,174.837,25.527,275.358,49.614A187.1578,187.1578,0,0,1,400.977,151.689l14.16-2.96C369.356,47.429,250.125,2.422,148.825,48.203Z" transform="translate(0.0001 -30.2919)"/><polygon points="208.229 78.068 166.59 209.056 204.759 210.791 178.735 318.791 289.771 191.157 240.759 185.705 294.108 78.068 208.229 78.068" fill="#ef7d25" stroke="#000" stroke-miterlimit="10"/><path d="M305.977,106.969a7.08,7.08,0,0,0-7.08-7.08h-91.56a7.08,7.08,0,0,0-6.72,4.88l-42.6,130.36a7.0805,7.0805,0,0,0,6.6,9.76h32l-28,109.08a7.08,7.08,0,0,0,12,7.04l118.36-137.68a7.08,7.08,0,0,0-5.32-12h-41.52l52.72-100.48A7.0865,7.0865,0,0,0,305.977,106.969Zm-71.8,108.36a7.08,7.08,0,0,0,6.28,10.32h37.72l-88.72,103.16,22.96-89.12a7.08,7.08,0,0,0-6.84-8.8h-31.2l38.08-116.8h74.72Z" transform="translate(0.0001 -30.2919)"/></svg>